<svg xmlns="http://www.w3.org/2000/svg" viewBox="0 0 301.1 592.63"><defs><style>.cls-1{isolation:isolate;}.cls-14,.cls-2{mix-blend-mode:multiply;}.cls-2{opacity:0.26;}.cls-3{fill:#000f1b;}.cls-4{fill:#133441;}.cls-5{fill:#fcead4;}.cls-6{fill:#f7d5a8;}.cls-7{fill:#fad4a7;}.cls-8{fill:#eec494;}.cls-9{fill:#fbd4a9;}.cls-10{fill:#fff4e5;}.cls-11{fill:#a8d24c;}.cls-12{fill:#a0b24c;}.cls-13{fill:#f2c291;}.cls-15{fill:#b8c8d1;}.cls-16{fill:#fd6c6c;}.cls-17{fill:#fff;}.cls-18{fill:#d72626;}</style></defs><g class="cls-1"><g id="Layer_2" data-name="Layer 2"><g id="Layer_2-2" data-name="Layer 2"><g class="cls-2"><ellipse class="cls-3" cx="156.97" cy="567.29" rx="89.98" ry="25.34"/></g><path class="cls-4" d="M94.76,564.79a5,5,0,0,1-.33-10,25.87,25.87,0,0,0,3.65-.51c-5.29-10.17-14-33.57.22-59a5,5,0,0,1,8.73,4.9c-15.56,27.73,2.17,53.3,2.35,53.55a5,5,0,0,1-1,6.84c-.46.37-4.81,3.6-13.29,4.17Z"/><path class="cls-4" d="M219.18,564.79h-.34c-8.48-.57-12.83-3.8-13.3-4.17a5,5,0,0,1-1.08-6.7c.64-1,15.64-24.53,2.25-54.07a5,5,0,1,1,9.12-4.14,68.94,68.94,0,0,1-.18,58.53,23.52,23.52,0,0,0,3.86.56,5,5,0,0,1-.33,10Z"/><path class="cls-4" d="M239.67,307.72h-.15c-12.05-.09-22.58-10.6-31.31-31.23a5,5,0,0,1,9.23-3.9c4.83,11.42,12.59,25,22.15,25.11h.08c13.28,0,27.3-25,31.17-33.81a5,5,0,0,1,9.17,4C278.21,272,261.83,307.72,239.67,307.72Z"/><path class="cls-4" d="M301,268.57a5,5,0,0,0-5.94-3.85,17.27,17.27,0,0,1-6.43.26,18.61,18.61,0,0,0,8.53-10.38,5,5,0,0,0-9.44-3.35c-2.49,7-9.38,6.43-10.68,6.26h-.15c-1.4-.18-3.23-.61-4-1.71a4.21,4.21,0,0,1-.5-2.83,5,5,0,0,0-9.77-2.2,14.14,14.14,0,0,0,2,10.71,13.6,13.6,0,0,0,7,5.07c2.16,14,12.17,19.14,17.57,19.87a5.17,5.17,0,0,0,.68,0,5,5,0,0,0,5-4.33,5,5,0,0,0-4.26-5.63,9.46,9.46,0,0,1-3.65-1.61,24.3,24.3,0,0,0,3.93.33,29.91,29.91,0,0,0,6.25-.69A5,5,0,0,0,301,268.57Z"/><path class="cls-4" d="M61.43,313.05c-22.16,0-38.54-35.71-40.34-39.79a5,5,0,0,1,9.17-4C34.14,278,48.19,303,61.43,303h.09c9.56-.07,17.32-13.69,22.15-25.11a5,5,0,1,1,9.22,3.91C84.16,302.45,73.63,313,61.58,313.05Z"/><path class="cls-4" d="M32.5,252.3a5,5,0,0,0-3.74,6,4.25,4.25,0,0,1-.51,2.83c-.8,1.1-2.63,1.54-4,1.71h-.14c-.33.05-8,1.16-10.69-6.26A5,5,0,0,0,4,259.94a18.65,18.65,0,0,0,8.53,10.37,17.21,17.21,0,0,1-6.42-.26A5,5,0,1,0,4,279.84a29.22,29.22,0,0,0,6.24.7,24.52,24.52,0,0,0,4-.34,9.46,9.46,0,0,1-3.59,1.6,5,5,0,0,0,.66,10,5.12,5.12,0,0,0,.67,0c5.4-.73,15.41-5.84,17.58-19.87a13.57,13.57,0,0,0,7-5.07,14.16,14.16,0,0,0,2-10.71A5.06,5.06,0,0,0,32.5,252.3Z"/><path class="cls-5" d="M249.34,499.63c-28.42,16.31-61.8,23.39-94.46,21.06,2.87-4,8.47-5.11,13.45-5,5.19.15,10.49,1.24,15.49-.14,10.58-2.93,15.35-16.62,11.53-26.92s-13.8-17.15-24.16-20.78c-4.47-1.56-9.41-2.85-12.36-6.55-4.93-6.18-1.75-15.22,1.61-22.37l12.42-26.47c1-2.22,2.11-4.52,2.15-7,.11-6.57-6.61-10.79-10.72-15.91-6.9-8.62-6-22.43,1.84-30.14,1.13-1.1,2.46-2.24,2.64-3.81.2-1.79-1.18-3.33-2.51-4.55-15.2-13.91-35.38-19.71-56.08-23l0,3.2c0,.54,0,1.06,0,1.6s0,1.05,0,1.58c0,1.78,0,3.55,0,5.31,0,.45,0,.89,0,1.34,0,1.35,0,2.71,0,4.05s0,2.37,0,3.56c0,.25,0,.49,0,.74l0,2.28c0,.76,0,1.51-.05,2.27l-.06,2.72c0,.6,0,1.19-.05,1.79l-.06,2.24-.06,1.81c-.09,3-.21,5.92-.34,8.85l-.08,1.64-.06,1.3c0,.64-.06,1.28-.1,1.92s-.07,1.44-.11,2.17c0,0,0,.05,0,.08l-.12,2.14c-.13,2.19-.26,4.38-.41,6.57,0,.53-.07,1.07-.11,1.62-.1,1.4-.2,2.8-.31,4.2,0,.48-.07.95-.11,1.43q-.31,4.17-.69,8.34c-.06.63-.11,1.25-.17,1.88-.08.91-.17,1.83-.25,2.75-.06.54-.11,1.09-.16,1.63l-.18,1.85c-.08.76-.16,1.53-.23,2.29l-.48,4.6c0,.42-.09.84-.14,1.26-.49,4.47-1,9-1.58,13.53-.1.85-.21,1.71-.32,2.57s-.25,1.92-.37,2.89h0c-.13,1-.25,1.93-.38,2.9q-.41,3.09-.84,6.21c-.21,1.55-.43,3.1-.65,4.66l-.69,4.82c-.08.52-.15,1-.24,1.58-.27,1.85-.54,3.72-.83,5.61-.24,1.61-.48,3.23-.74,4.87-.12.81-.25,1.63-.38,2.45-.23,1.54-.47,3.09-.72,4.64l-1.24,7.78s0,.08,0,.13c-.11.68-.23,1.37-.34,2.06-2.84-.46-5.7-.85-8.56-1.17-2.57,16.95-4.67,26.78-4.67,26.78l-13.8-32.87c14.82-54.05,15-131.4,11.9-192l-1.56-25.7h0q-.44-6.15-.88-11.89l-.09-1.12q-.26-3.39-.53-6.61c-.08-.86-.15-1.71-.22-2.55l0,0,0-.36c0-.28,0-.56-.06-.85a8.23,8.23,0,0,1,0-.86,25.74,25.74,0,0,0-.08-3.4c-.09-1.14-.25-2.27-.41-3.41s-.17-2.3-.35-3.44l-.3-1.7c0-.37-.07-.73-.11-1.09s-.09-1-.13-1.42-.07-.68-.1-1c-.41-4.2-.8-8-1.16-11.38,0-.33-.07-.66-.11-1-.05-.53-.11-1-.16-1.55,0-.33-.07-.67-.11-1s-.07-.65-.11-1-.07-.62-.1-.93c-.31-2.77-.58-5.1-.8-6.94l-.06-.55c-.12-1-.21-1.78-.3-2.44,0-.12,0-.24,0-.36-.08-.66-.14-1.13-.17-1.39a.17.17,0,0,1,0-.07c0-.08,0-.13,0-.15h0c-7.27-32.71-23.41-66.33-48.4-88C22.51,87.35,24.55,73.79,31.72,58c13.71-30.1,44-51.39,76.61-56.64s67,4.75,93.34,24.72c5.23,3.95,19.12,13.18,21.79,28.49a30.33,30.33,0,0,1,.15,9.5v0a0,0,0,0,1,0,0Q222.51,78,221.62,92h0c-.77.59-1.52,1.18-2.26,1.8-11.43,9.53-19.59,23.28-33,29.81-3.76,1.84-7.89,3.07-11.11,5.74-4.32,3.58-6.15,9-6.26,14.7,0,.38,0,.76,0,1.13a33.09,33.09,0,0,0,1.9,10.24c3.13,8.84,8.89,16.57,12.05,25.41a18.11,18.11,0,0,1,1.25,5.9.81.81,0,0,1,0,.16,9.23,9.23,0,0,1-.15,1.66c-1,5.46-6.86,9.26-7.21,14.8,0,.2,0,.4,0,.6,0,2.39.69,5.14.7,7.44,0,1.92-.46,3.52-2.19,4.37-1.33.65-2.9.41-4.38.39A14.29,14.29,0,0,0,157,229q0,.48,0,1v.26c.11,7,5.25,13.14,8.44,19.58,3,6,4.26,12.43,5,19.06,0,0,0,0,0,.13.14,1.67,1.61,18.52,2.45,25.59h-.08c0,.12.05.24.07.36v0l.18,1v0c1.75,9,5.2,17.69,12.21,23.4,8.17,6.66,19.45,7.9,28.64,13.06A81.06,81.06,0,0,1,225,340.5,1348.79,1348.79,0,0,0,249.34,499.63Z"/><path class="cls-5" d="M76.77,224.6c0-.58-.1-1.14-.16-1.69h0c0,.57.12,1.13.21,1.69Z"/><path class="cls-5" d="M218.65,227.06c0,2.12.09,4.23.14,6.35,0,.55,0,1.1.05,1.65L218.52,219l0,2.45C218.58,223.32,218.62,225.19,218.65,227.06Z"/><path class="cls-6" d="M59.89,62c-1.48,5.73-.68,11.85,1.54,17.67,12.91,20,46.24,31.33,80.4,29.19-1.18-6.4-2.09-13-2.68-19.77-1.73-20.18-.53-41.3,5.13-59.84-2.15-2.55-5.93-1.7-9.25-1.63-12.46.26-25,.91-37,4.31S73.5,40.2,66,50.15c-.26.35-.53.72-.78,1.09A33.9,33.9,0,0,0,59.89,62Z"/><path class="cls-7" d="M108.22,278.45c.41,3.43.71,6.88.87,10.34,0,.32,0,.65,0,1l.37,3.72q0-4.61-.42-9.2c-.27-3.47-.68-6.93-1.21-10.37-.22-1.42-.46-2.83-.72-4.24l.37,3.8C107.78,275.13,108,276.79,108.22,278.45Z"/><path class="cls-7" d="M93.11,289.89v0a.17.17,0,0,0,0,.07s0,0,0,0h0v0l0,.07h0l.16.05.24,2.22c.16,1.56.32,3.11.46,4.67.07.74.15,1.47.21,2.21,0,.51.1,1,.14,1.53.11,1.13.2,2.25.3,3.38l.15,1.89c0,.28,0,.57.07.85l.15,1.81L95.3,312c.08,1,.15,2.07.22,3.11l.09,1.3c.13,2.08.26,4.16.37,6.22,0,.77.09,1.53.13,2.29,0,.43,0,.86.07,1.29.12,2.34.22,4.67.32,7,0,.71,0,1.42.08,2.13l.06,1.68q.14,3.88.23,7.72c0,.3,0,.59,0,.89l0,1.08c0,.87,0,1.73,0,2.59,0,.46,0,.92,0,1.38s0,.79,0,1.19c0,1.41,0,2.82,0,4.22,0,.52,0,1.05,0,1.57,0,.86,0,1.72,0,2.58,0,9.61-.12,19-.42,28.05-.15,4.72-.35,9.36-.57,13.9-.07,1.25-.13,2.48-.2,3.71l0,.69c-.11,1.9-.22,3.79-.33,5.66q-.23,3.51-.46,7c-.13,1.82-.26,3.61-.4,5.39-1.87,24.37-4.52,45-6.8,60.06,2.86.32,5.72.71,8.56,1.17.11-.69.23-1.38.34-2.06,0,0,0-.09,0-.13L98,475.87l.72-4.64c.13-.82.26-1.64.38-2.45.26-1.64.5-3.26.74-4.87.29-1.89.56-3.76.83-5.61.09-.53.16-1.06.24-1.58l.69-4.82c.22-1.56.44-3.11.65-4.66q.43-3.12.84-6.21c.13-1,.25-1.94.38-2.9h0c.12-1,.25-1.93.37-2.89s.22-1.72.32-2.57c.57-4.56,1.09-9.06,1.58-13.53,0-.42.09-.84.14-1.26l.48-4.6c.07-.76.15-1.53.23-2.29l.18-1.85c0-.54.1-1.09.16-1.63.08-.92.17-1.84.25-2.75.06-.63.11-1.25.17-1.88q.38-4.17.69-8.34c0-.48.08-.95.11-1.43.11-1.4.21-2.8.31-4.2,0-.55.07-1.09.11-1.62.15-2.19.28-4.38.41-6.57l.12-2.14s0-.06,0-.08c0-.73.08-1.45.11-2.17s.07-1.28.1-1.92l.06-1.3.08-1.64c.13-2.93.25-5.88.34-8.85l.06-1.81.06-2.24c0-.6,0-1.19.05-1.79l.06-2.72c0-.76,0-1.51.05-2.27l0-2.28c0-.25,0-.49,0-.74,0-1.19,0-2.37,0-3.56s0-2.7,0-4.05c0-.45,0-.89,0-1.34,0-1.76,0-3.53,0-5.31v-1.58c0-.54,0-1.06,0-1.6l0-3.2,0-2.38c0-1.58-.05-3.18-.09-4.79,0-.77,0-1.54,0-2.31q-.13-5.94-.35-12.09-.24-6.46-.63-13.13h0l.19,0c0-1.23,0-2.45-.1-3.68l-1.61-16.29c-.26-1.69-.56-3.38-.9-5.06,0-.17.24-.21.28,0,.08.44.17.87.25,1.3l0-.25c-6.34-64-23-136.16-46.5-191.07.26.44.53.87.81,1.3-2.22-5.82-3-11.94-1.54-17.67a33.9,33.9,0,0,1,5.33-10.75c.25-.37.52-.74.79-1.09C73.5,40.2,86,35.34,98,31.92s24.57-4.05,37-4.31c3.32-.07,7.11-.92,9.25,1.63-5.66,18.54-6.86,39.66-5.13,59.84.59,6.74,1.51,13.37,2.68,19.77,31.82-2,64.36-15.65,81.78-44.73v0a30.33,30.33,0,0,0-.15-9.5c-2.67-15.31-16.56-24.54-21.79-28.49-26.38-20-60.69-30-93.34-24.72S45.43,27.93,31.72,58c-7.17,15.76-9.21,29.32-6.82,46.45,25,21.65,41.13,55.27,48.4,88v0q.82,2.53,1.6,5.09c.09.29.18.57.26.86h0q2.89,9.47,5.33,19.07c4,15.82,7.18,31.81,9.61,47.74h0"/><path class="cls-7" d="M93.13,289.76v0h0v0"/><path class="cls-8" d="M188.89,76.79a34.72,34.72,0,0,1-30.79-14.6c-6.73-9.8-9-25.65-3.83-36.39C27.24,1.27,55.51,90.44,55.51,90.44,83.44,142,96.73,206.59,102.25,268.49q2.37.5,4.86.93h0c-6.34-64-23-136.16-46.5-191.07.26.44.53.87.81,1.3-2.22-5.82-3-11.94-1.54-17.67a33.9,33.9,0,0,1,5.33-10.75c.25-.37.52-.74.78-1.09,7.5-9.95,20-14.81,32-18.23s24.57-4.05,37-4.31c3.32-.07,7.1-.92,9.25,1.63-5.66,18.54-6.86,39.66-5.13,59.84.59,6.75,1.5,13.37,2.68,19.77,31.82-2,64.36-15.65,81.78-44.73v0a30.63,30.63,0,0,0-.15-9.5A77.14,77.14,0,0,1,216.19,63C208.8,70.3,199.25,75.93,188.89,76.79Z"/><path class="cls-8" d="M110.24,339.81c0,.45,0,.89,0,1.34,0,1.35,0,2.71,0,4.05s0,2.38,0,3.56c0,.25,0,.49,0,.74l0,2.28c0,.76,0,1.51-.05,2.27l-.06,2.72c0,.6,0,1.19-.05,1.79l-.06,2.24-.06,1.81c-.09,3-.21,5.92-.34,8.85l-.08,1.64-.06,1.3c0,.64-.06,1.28-.1,1.92s-.07,1.44-.11,2.17c0,0,0,.05,0,.08l-.12,2.14c-.13,2.19-.26,4.38-.41,6.57,0,.53-.07,1.07-.11,1.62-.1,1.4-.2,2.8-.31,4.2,0,.48-.07.95-.11,1.43q-.31,4.17-.69,8.34c-.06.63-.11,1.25-.17,1.88-.08.91-.17,1.83-.25,2.75-.06.54-.11,1.09-.16,1.63l-.18,1.85c-.08.76-.16,1.53-.23,2.29l-.48,4.6c0,.42-.09.84-.14,1.26-.49,4.47-1,9-1.58,13.53-.1.85-.21,1.71-.32,2.57s-.25,1.92-.37,2.89h0c-.13,1-.25,1.93-.38,2.9q-.41,3.09-.84,6.21c-.21,1.55-.43,3.1-.65,4.66l-.69,4.82c-.08.52-.15,1-.24,1.58-.27,1.85-.54,3.72-.83,5.61-.24,1.61-.48,3.23-.74,4.87-.12.81-.25,1.63-.38,2.45-.23,1.54-.47,3.09-.72,4.64l-1.24,7.78c.94-6.49,10.31-73.5,8.61-156.24-.23-11.36-.67-23-1.38-34.86q2.48.46,5,.87.39,6.66.63,13.13.21,6.15.35,12.09c0,.77,0,1.54,0,2.31,0,1.61.07,3.21.09,4.79l0,2.38,0,3.2c0,.54,0,1.06,0,1.6s0,1.05,0,1.58C110.24,336.28,110.24,338.05,110.24,339.81Z"/><path class="cls-9" d="M141.83,108.85c-1.18-6.4-2.09-13-2.68-19.77a56.87,56.87,0,0,1-13.07,1.39c-14.63-.13-28.95-5.6-40.86-14.11-8.78-6.27-16.61-15.15-20-25.12A33.9,33.9,0,0,0,59.89,62c-1.48,5.73-.68,11.85,1.54,17.67C74.34,99.7,107.67,111,141.83,108.85Z"/><path class="cls-5" d="M81.32,286.54h0c3.09,60.66,2.92,138-11.9,192.05l13.8,32.87s2.1-9.83,4.67-26.78c5.85-38.58,14.12-114.08,5.47-194.48C89.11,289.1,85.09,287.89,81.32,286.54Z"/><path class="cls-5" d="M90.12,265.25c-2.43-15.93-5.58-31.92-9.62-47.74q-2.43-9.58-5.32-19.07h0l-.27-.86c-.52-1.7-1-3.39-1.6-5.09v-.05s3.66,28.09,6.46,68.4a60,60,0,0,0,10.35,4.41Z"/><path class="cls-10" d="M85.26,110.24,84,110.7A666.29,666.29,0,0,1,117.38,258l1.38-.15A667.4,667.4,0,0,0,85.26,110.24Z"/><path class="cls-11" d="M220.83,284.51c0-.66-.07-1.31-.11-2h0l-1.19-25.26v-3l-.11.06q-.39-10.51-.64-21c0-2.12-.1-4.23-.14-6.35,0-1.87-.07-3.74-.1-5.61-.7-43.43.37-86.75,3.07-129.48-.76.59-1.52,1.19-2.26,1.81-11.43,9.53-19.59,23.28-33,29.81-2.51,1.22-5.18,2.18-7.64,3.48l14.91-2a4.87,4.87,0,0,1,.66,0,5,5,0,0,1,4.93,4.32l.84,6.34a5,5,0,0,1-4.28,5.59l-23.93,3.18a4.89,4.89,0,0,1-.66,0,5,5,0,0,1-2.2-.52,32.47,32.47,0,0,0,1.9,11.38c3.13,8.85,8.89,16.58,12.05,25.42a21,21,0,0,1,1.15,4.44h.37a4.51,4.51,0,0,1,3.2,1.32l14.49,14.49a4.53,4.53,0,0,1,0,6.39l-14.49,14.49a4.53,4.53,0,0,1-6.39,0l-6.12-6.12c-1.3.56-2.8.34-4.22.32a14.29,14.29,0,0,0-14,12.83c-.52,7.57,5,14,8.41,20.8,3,6,4.29,12.58,5,19.29a.24.24,0,0,1,0-.09s0,.06,0,.1V269s0,.1,0,.15h0c.22,2.54,1.62,18.53,2.43,25.38h-.08c0,.12.05.24.07.36v0l.18,1v0c1.75,9,5.2,17.69,12.21,23.4l.69.55a10.88,10.88,0,1,1,19.22,8.66,59.17,59.17,0,0,1,8.73,3.85A81.06,81.06,0,0,1,225,340.5Q222.41,312.57,220.83,284.51ZM197.45,226a18.13,18.13,0,0,1,10.14,33.17h0a18.11,18.11,0,0,1-7.49,2.9,17.78,17.78,0,0,1-2.65.19,18.13,18.13,0,1,1,0-36.26Z"/><path class="cls-11" d="M207.59,259.21a18.11,18.11,0,0,1-7.49,2.9C202.71,261.19,205.19,260.21,207.59,259.21Z"/><path class="cls-11" d="M197.72,176.24a5.46,5.46,0,0,1-3.6,1.35,5.55,5.55,0,0,1-5.51-4.7l-2.29-14.7a5.55,5.55,0,0,1,5.47-6.4,5.72,5.72,0,0,1,1.66.25l14.21,4.41a5.54,5.54,0,0,1,2,9.49Z"/><path class="cls-11" d="M195.81,141.19l-23.93,3.18a4.89,4.89,0,0,1-.66,0,5,5,0,0,1-2.2-.52c.11-5.68,1.95-11.11,6.26-14.68a19.87,19.87,0,0,1,3.47-2.26l14.91-2a4.87,4.87,0,0,1,.66,0,5,5,0,0,1,4.93,4.32l.84,6.34A5,5,0,0,1,195.81,141.19Z"/><path class="cls-11" d="M202.18,207.33l-14.49,14.49a4.53,4.53,0,0,1-6.39,0l-6.12-6.12.16-.07c4-2,1.24-8,1.51-12.41.35-5.54,6.2-9.34,7.21-14.8a10.92,10.92,0,0,0,.06-3.28h.37a4.51,4.51,0,0,1,3.2,1.32l14.49,14.49A4.53,4.53,0,0,1,202.18,207.33Z"/><path class="cls-11" d="M209.64,165.94l-11.92,10.3a5.46,5.46,0,0,1-3.6,1.35,5.55,5.55,0,0,1-5.51-4.7l-2.29-14.7a5.55,5.55,0,0,1,5.47-6.4,5.72,5.72,0,0,1,1.66.25l14.21,4.41A5.54,5.54,0,0,1,209.64,165.94Z"/><path class="cls-11" d="M215.59,244.17a18.14,18.14,0,0,1-8,15h0a18.11,18.11,0,0,1-7.49,2.9,17.78,17.78,0,0,1-2.65.19,18.13,18.13,0,1,1,18.14-18.13Z"/><path class="cls-11" d="M207.54,321.73a10.84,10.84,0,0,1-2.38,6.79c-6.69-2.45-13.63-4.39-19.22-8.66a10.88,10.88,0,0,1,21.6,1.87Z"/><path class="cls-11" d="M183.82,515.58c-5,1.38-10.3.29-15.49.14-5-.14-10.58,1-13.45,5a163.32,163.32,0,0,1-61.46-16.6q1.58-9.37,3-18.25c.11-.69.23-1.38.34-2.06,0,0,0-.09,0-.13L98,475.87c.25-1.55.49-3.1.72-4.64.13-.82.26-1.64.38-2.45.26-1.64.5-3.26.74-4.87.29-1.89.56-3.76.83-5.61l.24-1.58.69-4.82c.22-1.56.44-3.11.65-4.66q.43-3.12.84-6.21c.13-1,.25-1.94.38-2.9h0c.12-1,.25-1.93.37-2.89s.22-1.72.32-2.57c.57-4.56,1.09-9.06,1.58-13.53,0-.42.09-.84.14-1.26l.48-4.6c.08-.76.15-1.53.23-2.29l.18-1.85c0-.54.1-1.09.16-1.63.08-.92.17-1.84.25-2.75.06-.63.11-1.25.17-1.88q.38-4.17.69-8.34c0-.48.08-.95.11-1.43.11-1.4.21-2.8.31-4.2,0-.54.07-1.08.11-1.62.15-2.19.28-4.38.41-6.57l.12-2.14s0-.06,0-.08c0-.73.08-1.45.11-2.17s.07-1.28.1-1.92l.06-1.3.08-1.64c.13-2.93.25-5.88.34-8.85l.06-1.81.06-2.24c0-.6,0-1.19.05-1.79l.06-2.72c0-.76,0-1.51.05-2.27l0-2.28c0-.25,0-.49,0-.74,0-1.19,0-2.37,0-3.56s0-2.7,0-4.05c0-.44,0-.89,0-1.34,0-1.76,0-3.53,0-5.31,0-.53,0-1.06,0-1.58s0-1.06,0-1.6l0-3.2c20.7,3.28,40.88,9.08,56.08,23,1.33,1.22,2.71,2.76,2.51,4.55-.18,1.57-1.51,2.71-2.64,3.81-7.89,7.71-8.74,21.52-1.84,30.14,4.11,5.12,10.83,9.34,10.72,15.91,0,2.45-1.1,4.75-2.15,7L160.44,439c-3.36,7.15-6.54,16.19-1.61,22.37,2.95,3.7,7.89,5,12.36,6.55,10.36,3.63,20.34,10.5,24.16,20.78S194.4,512.65,183.82,515.58Z"/><path class="cls-12" d="M195.81,141.19l-23.93,3.18a4.89,4.89,0,0,1-.66,0,5,5,0,0,1-4.93-4.33l-.84-6.34a5,5,0,0,1,4.28-5.59l9-1.2,14.91-2a4.87,4.87,0,0,1,.66,0,5,5,0,0,1,4.93,4.32l.84,6.34A5,5,0,0,1,195.81,141.19Z"/><path class="cls-13" d="M215.52,413.44,192,406.39a3.93,3.93,0,0,0-1.16-.17A4,4,0,0,0,187,409.1l-1.66,5.51a4,4,0,0,0,2.71,5l23.52,7.06a4.29,4.29,0,0,0,1.16.17,4,4,0,0,0,3.87-2.88l1.66-5.51A4.05,4.05,0,0,0,215.52,413.44Z"/><path class="cls-12" d="M126,331.27a4,4,0,0,0-3.93-3.15,3.77,3.77,0,0,0-.88.1l-5.65,1.26a4,4,0,0,0-3.06,4.81l5.36,24a4,4,0,0,0,3.92,3.15,3.92,3.92,0,0,0,.89-.1l5.64-1.25a4,4,0,0,0,3.06-4.81Z"/><path class="cls-12" d="M148.59,382.13a7.65,7.65,0,0,0,7.22-8.07l-.4-7.23a7.65,7.65,0,0,0-7.63-7.24h-.43a7.67,7.67,0,0,0-7.23,8.07l.4,7.24a7.66,7.66,0,0,0,7.64,7.23Z"/><path class="cls-12" d="M131.82,458A7.66,7.66,0,0,0,121,468.8l5.13,5.12A7.66,7.66,0,1,0,137,463.07Z"/><path class="cls-12" d="M202.18,207.33l-14.49,14.49a4.53,4.53,0,0,1-6.39,0l-6.12-6.12-8.37-8.37a4.51,4.51,0,0,1,0-6.39l14.49-14.49a4.52,4.52,0,0,1,2.82-1.31h.37a4.51,4.51,0,0,1,3.2,1.32l14.49,14.49A4.53,4.53,0,0,1,202.18,207.33Z"/><rect class="cls-12" x="116.87" y="406.96" width="43" height="19.17" transform="translate(-158.66 93.39) rotate(-24.21)"/><path class="cls-13" d="M224.26,453.37,203.5,441.26a2.86,2.86,0,0,0-4.29,2.26l-1.75,24a2.85,2.85,0,0,0,2.85,3.06,2.81,2.81,0,0,0,1.33-.33l22.51-11.86A2.86,2.86,0,0,0,224.26,453.37Z"/><path class="cls-12" d="M174.68,465.36a4,4,0,0,0-6.75-.52l-12,16.27a4,4,0,0,0,2.91,6.34l21.32,1.62h.32a4,4,0,0,0,3.51-5.83Z"/><path class="cls-12" d="M209.64,165.94l-11.92,10.3a5.46,5.46,0,0,1-3.6,1.35,5.55,5.55,0,0,1-5.51-4.7l-2.29-14.7a5.55,5.55,0,0,1,5.47-6.4,5.72,5.72,0,0,1,1.66.25l14.21,4.41A5.54,5.54,0,0,1,209.64,165.94Z"/><path class="cls-12" d="M215.59,244.17a18.14,18.14,0,0,1-8,15h0a18.11,18.11,0,0,1-7.49,2.9,17.78,17.78,0,0,1-2.65.19,18.13,18.13,0,1,1,18.14-18.13Z"/><circle class="cls-12" cx="132.8" cy="499.96" r="10.88"/><path class="cls-12" d="M207.54,321.73a10.88,10.88,0,0,1-21.76,0,10.57,10.57,0,0,1,.16-1.87,10.88,10.88,0,0,1,21.6,1.87Z"/><polygon class="cls-8" points="102.25 268.49 104.03 292.55 109.04 293.42 107.12 269.43 102.25 268.49"/><path class="cls-11" d="M170.44,269.15c0-.06,0-.11,0-.15S170.43,269.1,170.44,269.15Z"/><path class="cls-11" d="M172.87,294.54l2-.25L173,295.91v0C173,295.5,172.93,295,172.87,294.54Z"/><g class="cls-14"><path class="cls-15" d="M262.78,211.64c-6.41-4-16.58,1.19-23.62,1.75a50.29,50.29,0,0,1-20.53-2.25,32,32,0,0,1-12.39-7.86c-3-3-4.61-6.63-7.26-9.79-1.76-2.11-5-.28-5.11,2.11-.4,10.79,11.74,20.37,20.43,24.15a52.75,52.75,0,0,0,23.08,3.85c7.57-.3,22.83-.58,26.27-8.67A2.48,2.48,0,0,0,262.78,211.64Z"/><path class="cls-15" d="M104.26,194c-2.53,3-4.06,6.53-6.9,9.42a32.23,32.23,0,0,1-12.75,8.23A49.63,49.63,0,0,1,65,214a91.6,91.6,0,0,1-13.17-2.18c-4-.86-7.66-1.94-11.35.36a2.5,2.5,0,0,0-.86,3.3c3.44,8.08,18.7,8.36,26.27,8.66a52.71,52.71,0,0,0,23.07-3.85c8.69-3.77,20.84-13.35,20.43-24.14C109.28,193.74,106,191.89,104.26,194Z"/></g><path class="cls-4" d="M186.13,196.1s41.39-36.53,88.64-57.28C278.3,241.47,191.53,244.56,186.13,196.1Z"/><path class="cls-4" d="M116,196.1S88.49,171.78,27.4,138.82C23.87,241.47,110.65,244.56,116,196.1Z"/><path class="cls-4" d="M119.44,256.58C109.66,240.47,134.15,208,151.36,208s40.08,34.89,31.89,48.57c-4.69,7.84-15.54,9.95-31.89,9.95S124.3,264.56,119.44,256.58Z"/><path class="cls-16" d="M151.57,249.07A50.67,50.67,0,0,0,125.25,256c4.84,5,13.58,6.32,26.09,6.32,12.31,0,21-1.38,25.85-6.12A47,47,0,0,0,151.57,249.07Z"/><g class="cls-14"><path class="cls-15" d="M179.32,200.41c-1.68-5.24-1-10.84-.46-16.21.2-1.81-2.78-2.19-3.17-.43-2,9.13-3.36,18.6,3.08,26.28a2.7,2.7,0,0,0,2.6.69l.75-.15a1.4,1.4,0,0,0,1-1C183.65,206,180.39,203.74,179.32,200.41Z"/><path class="cls-15" d="M122.59,182.7a54,54,0,0,1,.31,12.58c-.56,4.16-2.17,7.69-3.73,11.53-1.18,2.88,3.28,5.36,5.23,3.05,6.41-7.58,3.73-18.85,1.92-27.67C125.89,180.13,122.37,180.55,122.59,182.7Z"/><path class="cls-15" d="M165,191.31c.18-2.12-3.34-2.61-3.73-.51a20.08,20.08,0,0,0,.47,9.59c.87,2.91,5.56,1.48,4.46-1.23A16.47,16.47,0,0,1,165,191.31Z"/><path class="cls-15" d="M138.13,193.32l-.27,6.55c-.13,3.1,4.94,3.1,4.82,0q-.13-3.27-.28-6.55A2.14,2.14,0,0,0,138.13,193.32Z"/></g><path class="cls-17" d="M216.09,113.6c2.86,10.12,6.26,18.39,2.34,30.92-2.51,8-21.48,35.18-15.11,53.66,7.87,22.86,51.5,21,51.14-8.91-.2-15.66-13.11-19.51-13-38.62-4.61,5.78-8.52,9.16-8.4,18.66,0,3.5.22,3.69-1.39,3.82s-1-5,.2-10.41c7.82-32.3-1.7-37.68-15.77-49.12Z"/><path class="cls-18" d="M247.49,189.36c-.08-6.12-2.76-10-5.61-14-.64-.91-1.3-1.86-1.94-2.84a10.85,10.85,0,0,1-.3,1.78c-.89,3.51-4.25,5.86-8.34,5.86-3.84,0-6.89-2.12-7.76-5.41-.92-3.45.17-7.95,1.55-13.64,1.84-7.61,4-16.44,1.9-24.33a45.52,45.52,0,0,1-1.91,9.85,75.82,75.82,0,0,1-4.59,9.94c-5.74,11.25-14.41,28.25-10.58,39.37,1.32,3.83,4.08,6.68,8.44,8.71a23.76,23.76,0,0,0,10,2.16,25.49,25.49,0,0,0,4.6-.43C246.22,203.85,247.54,193.63,247.49,189.36Z"/><path class="cls-17" d="M60.72,113.6C63.57,123.72,67,132,63.05,144.52c-2.51,8-21.47,35.18-15.11,53.66,7.88,22.86,51.51,21,51.14-8.91-.19-15.66-13.11-19.51-13-38.62-4.61,5.78-8.51,9.16-8.39,18.66,0,3.5.21,3.69-1.39,3.82s-1-5,.2-10.41c7.81-32.3-1.71-37.68-15.77-49.12Z"/><path class="cls-18" d="M92.11,189.36c-.07-6.12-2.76-10-5.6-14-.64-.91-1.3-1.86-1.94-2.84a12,12,0,0,1-.3,1.78c-.9,3.51-4.25,5.86-8.34,5.86-3.85,0-6.9-2.12-7.77-5.41-.91-3.45.17-7.95,1.55-13.64,1.84-7.61,4-16.44,1.91-24.33a45.52,45.52,0,0,1-1.91,9.85,77.18,77.18,0,0,1-4.59,9.94c-5.74,11.25-14.42,28.25-10.59,39.37,1.32,3.83,4.08,6.68,8.44,8.71a23.8,23.8,0,0,0,10,2.16,25.51,25.51,0,0,0,4.61-.43C90.85,203.85,92.16,193.63,92.11,189.36Z"/></g></g></g></svg>