<svg xmlns="http://www.w3.org/2000/svg" viewBox="0 0 271.05 632.54"><defs><style>.cls-1{isolation:isolate;}.cls-2{mix-blend-mode:multiply;opacity:0.26;}.cls-3{fill:#000f1b;}.cls-4{fill:#133441;}.cls-5{fill:#fcead4;}.cls-6{fill:#f7d5a8;}.cls-7{fill:#fad4a7;}.cls-8{fill:#eec494;}.cls-9{fill:#fbd4a9;}.cls-10{fill:#fff4e5;}.cls-11{fill:#a8d24c;}.cls-12{fill:#a0b24c;}.cls-13{fill:#f2c291;}.cls-14{fill:#fff;}.cls-15{fill:#ee927e;}.cls-16{fill:#ab1700;}.cls-17{fill:#fd6c6c;}</style></defs><g class="cls-1"><g id="Layer_2" data-name="Layer 2"><g id="Layer_2-2" data-name="Layer 2"><g class="cls-2"><ellipse class="cls-3" cx="89.98" cy="607.2" rx="89.98" ry="25.34"/></g><path class="cls-4" d="M224.21,386.1l-.87.09c-14.15,1.1-24.77-17.49-31.57-55.24a5,5,0,0,1,9.85-1.77c6.39,35.41,15.27,47.47,20.95,47,7.39-.56,17-19.36,17.5-39.68a5,5,0,1,1,10,.24C249.54,359.24,239.07,384.05,224.21,386.1Z"/><path class="cls-4" d="M252.46,314.71a11.27,11.27,0,0,0-12,.11,15,15,0,0,0-6.54,9.69,12.4,12.4,0,0,0-3.58,7.87c-.22,4.91,3.2,10.86,13.56,11.48a22.37,22.37,0,0,0,4.29-.15c5.84-.81,10.13-4.13,11.81-9.35C262.25,327.43,258.93,318.8,252.46,314.71Z"/><path class="cls-4" d="M80.42,256.54a5,5,0,0,1-4.2-1.48c-55.73-57.51-35.91-114.3-35-116.69a5,5,0,1,1,9.41,3.43c-.77,2.14-18.38,53.46,32.82,106.29a5,5,0,0,1-.11,7.08A5,5,0,0,1,80.42,256.54Z"/><path class="cls-4" d="M53.72,118.3c-7.62-.82-15.58,3.89-18.13,10.71-2.36,6.33.15,12.85,6.73,17.44,4.21,2.94,7.89,3.81,10.89,3.45a9.88,9.88,0,0,0,6.87-4,12.42,12.42,0,0,0,2.07-8.39A15,15,0,0,0,63,125.82,11.27,11.27,0,0,0,53.72,118.3Z"/><path class="cls-4" d="M50.54,573.9a5,5,0,0,1-2.69-9.23,6.77,6.77,0,0,0,2.61-2.79c-9.25-13.06-12.51-25.43-9.68-36.81,4.24-17.06,20.66-25,21.36-25.31a5,5,0,1,1,4.29,9c-.13.07-12.91,6.34-16,18.76-2.17,8.83,1,19,9.33,30.16a5,5,0,0,1,1,2.86c0,.78,0,7.72-7.58,12.54A5,5,0,0,1,50.54,573.9Z"/><path class="cls-4" d="M100.63,568.84a5,5,0,0,1-5-4.46c-1-8.91,4.41-13.29,5-13.76a5,5,0,0,1,3.49-1c26.13,2.41,29.24-3.09,29.52-3.72,1.61-3.82-5.8-13.8-13.47-20.38a5,5,0,0,1,6.52-7.61c3.63,3.11,21.5,19.28,16.17,31.88-3.59,8.49-15.35,11.71-36.92,10a7.06,7.06,0,0,0-.39,3.46,5,5,0,0,1-4.43,5.52A5.07,5.07,0,0,1,100.63,568.84Z"/><path class="cls-5" d="M178.44,518.3c-31.68,8.38-65.75,6.56-96.69-4.16,3.81-3.1,9.51-2.74,14.28-1.31,5,1.49,9.81,3.92,15,3.88,11-.08,19.14-12.07,18.12-23s-8.88-20.15-17.94-26.34c-3.91-2.67-8.35-5.2-10.24-9.54-3.16-7.24,2.26-15.14,7.36-21.18q9.44-11.16,18.86-22.34c1.59-1.87,3.21-3.82,3.88-6.18,1.82-6.31-3.58-12.13-6.22-18.15-4.42-10.1,0-23.22,9.6-28.62,1.37-.77,3-1.53,3.53-3,.66-1.68-.27-3.52-1.24-5.05-11.07-17.37-29.05-28.21-48.19-36.74l-.81,3.1c-.13.51-.26,1-.4,1.54s-.26,1-.4,1.53c-.46,1.72-.91,3.43-1.37,5.13-.12.43-.24.86-.35,1.29l-1.08,3.91-1,3.42-.21.72c-.21.73-.41,1.46-.62,2.19l-.63,2.18c-.26.87-.51,1.74-.77,2.61l-.51,1.71c-.21.72-.43,1.44-.64,2.15s-.35,1.16-.53,1.74Q78,354,76.64,358.24l-.49,1.56c-.14.42-.27.84-.4,1.25-.2.61-.4,1.22-.59,1.82s-.45,1.38-.68,2.07a.19.19,0,0,0,0,.08c-.23.68-.45,1.36-.68,2-.69,2.09-1.39,4.16-2.1,6.24-.17.51-.35,1-.53,1.54l-1.38,4-.48,1.35c-.93,2.63-1.87,5.25-2.83,7.88-.22.58-.43,1.17-.65,1.76l-1,2.6-.58,1.53c-.21.58-.43,1.16-.65,1.74s-.55,1.43-.82,2.15c-.54,1.44-1.1,2.88-1.66,4.32-.15.39-.3.78-.46,1.18q-2.43,6.29-5,12.65c-.32.8-.65,1.6-1,2.4s-.73,1.8-1.11,2.7h0c-.37.9-.74,1.81-1.12,2.71-.79,1.92-1.6,3.84-2.42,5.78-.6,1.44-1.22,2.88-1.84,4.33s-1.27,3-1.92,4.48c-.2.48-.41,1-.63,1.46-.74,1.72-1.49,3.46-2.26,5.2q-1,2.25-2,4.51l-1,2.28c-.62,1.42-1.26,2.85-1.9,4.29q-1.59,3.56-3.22,7.18a.43.43,0,0,1-.05.12c-.29.64-.57,1.28-.86,1.91-2.63-1.18-5.29-2.29-8-3.35-6.88,15.7-11.46,24.65-11.46,24.65l-4.8-35.32c28.33-48.36,48.56-123,61.31-182.39l5.17-25.22h0c.79-4,1.53-7.93,2.24-11.7.07-.37.13-.74.2-1.1q.63-3.34,1.2-6.53c.15-.85.31-1.69.45-2.52l0,0,.06-.36c0-.27.1-.55.16-.83a8.64,8.64,0,0,1,.24-.83,24.83,24.83,0,0,0,.81-3.3c.2-1.13.35-2.26.49-3.4s.43-2.27.55-3.42c.06-.57.1-1.14.15-1.72.06-.36.13-.72.18-1.08s.17-.94.24-1.41.11-.67.17-1c.69-4.16,1.3-7.94,1.83-11.28,0-.34.1-.67.16-1L86,190.7l.15-1,.15-1c0-.32.09-.63.14-.93.42-2.75.77-5.08,1-6.91,0-.19.06-.37.08-.54.14-1,.26-1.78.35-2.44,0-.13,0-.24.05-.36.09-.66.16-1.13.19-1.38,0,0,0-.06,0-.08s0-.12,0-.15v0c1.46-33.48-5.4-70.14-23.93-97.53,2.14-17.17,7.63-29.74,18.64-43.09,21-25.52,55.78-38.23,88.68-34.83s63.44,22,83.73,48.09c4,5.18,15.05,17.69,13.66,33.17A30.41,30.41,0,0,1,266.59,91v0l0,0q-4.68,13.13-9.16,26.41h0c-.89.37-1.77.75-2.64,1.15-13.52,6.24-25,17.4-39.58,20.24-4.11.8-8.42.92-12.23,2.66-5.09,2.34-8.27,7.11-9.85,12.58-.1.36-.2.72-.29,1.09a33.06,33.06,0,0,0-.83,10.37c.73,9.36,4.29,18.32,5.05,27.68a18.12,18.12,0,0,1-.33,6s0,.1,0,.15a9.41,9.41,0,0,1-.58,1.56c-2.39,5-9,7.16-10.8,12.43l-.18.57c-.63,2.31-.66,5.14-1.25,7.37-.49,1.85-1.36,3.28-3.25,3.65-1.46.28-2.91-.36-4.33-.77A14.29,14.29,0,0,0,159.49,233c-.11.3-.2.61-.28.92,0,.08-.05.16-.07.25-1.72,6.83,1.66,14,3.07,21.1,1.31,6.51.89,13.11-.11,19.7l0,.13c-.29,1.65-3.24,18.3-4.27,25.35h-.08l0,.37h0c0,.33-.05.65-.07,1h0c-.66,9.2.43,18.44,5.72,25.78,6.16,8.54,16.74,12.66,24.27,20a80.81,80.81,0,0,1,8.65,10.74A1348.22,1348.22,0,0,0,178.44,518.3Z"/><path class="cls-5" d="M83.14,207.92c.1-.57.19-1.12.28-1.68h0a16.13,16.13,0,0,0-.23,1.68Z"/><path class="cls-5" d="M219.52,247.11q-.77,3.07-1.51,6.17l-.39,1.6,3.86-15.59-.6,2.38Q220.19,244.39,219.52,247.11Z"/><path class="cls-6" d="M109,46.5c-2.92,5.15-3.73,11.27-3.1,17.47,7.27,22.7,36.54,42.25,70.08,49,.52-6.48,1.36-13.12,2.54-19.78,3.56-19.94,10.2-40,20.48-56.47-1.41-3-5.29-3.17-8.51-4-12.1-3-24.43-5.62-36.88-5.44S127.82,29,118,36.65c-.35.27-.7.56-1,.85A34.1,34.1,0,0,0,109,46.5Z"/><path class="cls-7" d="M99.54,268.08q-.74,5.15-1.84,10.22c-.07.32-.15.64-.22,1L96.87,283q1.16-4.47,2-9c.63-3.42,1.14-6.87,1.52-10.33.16-1.42.29-2.85.4-4.28l-.62,3.76C100,264.77,99.77,266.43,99.54,268.08Z"/><path class="cls-7" d="M82,275.21v.16h0v.1h0l.15.08c-.12.74-.23,1.47-.35,2.21-.25,1.55-.5,3.09-.76,4.63-.13.73-.25,1.46-.38,2.19-.08.51-.17,1-.26,1.52-.19,1.11-.39,2.22-.59,3.33-.11.62-.23,1.25-.34,1.87l-.15.84c-.11.6-.22,1.19-.34,1.79-.19,1.07-.4,2.14-.61,3.21s-.39,2.05-.59,3.06c-.09.43-.17.86-.26,1.29-.4,2-.82,4.08-1.25,6.1-.15.75-.31,1.5-.47,2.24l-.27,1.26q-.74,3.45-1.5,6.85L73.53,320c-.12.55-.25,1.09-.37,1.64-.59,2.52-1.18,5-1.78,7.51l-.21.86-.26,1.06c-.21.84-.42,1.68-.62,2.52-.12.44-.23.88-.34,1.33s-.19.77-.29,1.15c-.34,1.37-.69,2.74-1,4.09l-.39,1.52-.66,2.5c-2.46,9.29-5,18.3-7.68,27q-2.06,6.78-4.16,13.28c-.38,1.18-.76,2.36-1.15,3.53l-.21.66c-.6,1.81-1.19,3.6-1.79,5.37q-1.12,3.35-2.24,6.59c-.6,1.73-1.19,3.43-1.79,5.11-8.13,23-16,42.31-22.14,56.24,2.67,1.06,5.33,2.17,8,3.35.29-.63.57-1.27.86-1.91a.43.43,0,0,0,.05-.12q1.63-3.63,3.22-7.18l1.9-4.29,1-2.28q1-2.27,2-4.51c.77-1.74,1.52-3.48,2.26-5.2.22-.49.43-1,.63-1.46q1-2.25,1.92-4.48c.62-1.45,1.24-2.89,1.84-4.33.82-1.94,1.63-3.86,2.42-5.78.38-.9.75-1.81,1.12-2.71h0q.57-1.35,1.11-2.7c.33-.8.66-1.6,1-2.4q2.6-6.37,5-12.65c.16-.4.31-.79.46-1.18.56-1.44,1.12-2.88,1.66-4.32.27-.72.55-1.44.82-2.15s.44-1.16.65-1.74l.58-1.53,1-2.6c.22-.59.43-1.18.65-1.76,1-2.63,1.9-5.25,2.83-7.88l.48-1.35,1.38-4c.18-.52.36-1,.53-1.54.71-2.08,1.41-4.15,2.1-6.24.23-.67.45-1.35.68-2a.19.19,0,0,1,0-.08c.23-.69.45-1.38.68-2.07s.39-1.21.59-1.82c.13-.41.26-.83.4-1.25l.49-1.56q1.33-4.19,2.63-8.45c.18-.58.35-1.16.53-1.74s.43-1.43.64-2.15l.51-1.71c.26-.87.51-1.74.77-2.61l.63-2.18c.21-.73.41-1.46.62-2.19l.21-.72,1-3.42,1.08-3.91c.11-.43.23-.86.35-1.29.46-1.7.91-3.41,1.37-5.13l.4-1.53c.14-.52.27-1,.4-1.54l.81-3.1c.19-.77.39-1.54.58-2.31.39-1.54.78-3.09,1.16-4.65.19-.74.37-1.5.56-2.25q1.41-5.76,2.79-11.76,1.45-6.3,2.81-12.84h0l.17.08c.31-1.19.59-2.39.86-3.58l2.68-16.16c.18-1.7.32-3.4.44-5.11,0-.18.28-.14.27,0l-.09,1.32,0-.25c10.47-63.44,13.12-137.46,4.66-196.59.14.49.28,1,.44,1.46-.63-6.19.18-12.31,3.1-17.46a34.1,34.1,0,0,1,7.93-9l1-.85c9.82-7.66,23.15-9.12,35.62-9.3s24.79,2.46,36.89,5.44c3.22.8,7.1,1,8.51,4C188.74,53.2,182.1,73.29,178.54,93.23c-1.18,6.66-2,13.3-2.54,19.78,31.25,6.33,66.21,1.59,90.58-22v0a30.41,30.41,0,0,0,2.32-9.21c1.39-15.48-9.63-28-13.66-33.17C235,22.5,204.42,3.92,171.52.54S103.89,9.85,82.84,35.37c-11,13.35-16.5,25.92-18.64,43.09C82.73,105.85,89.59,142.51,88.13,176v0c.08,1.77.16,3.55.22,5.33l0,.89h0c.23,6.59.29,13.2.2,19.79-.21,16.32-1.31,32.59-3.1,48.61h0"/><path class="cls-7" d="M82,275.1h0v0"/><path class="cls-8" d="M229.76,94.26a34.74,34.74,0,0,1-25.95-22.09c-3.95-11.21-2-27.1,5.75-36.13C93.24-20.61,97.41,72.83,97.41,72.83c13.6,57,9.67,122.88-1,184.09,1.43.73,2.92,1.45,4.45,2.16h0c10.47-63.44,13.12-137.46,4.66-196.59.14.49.28,1,.44,1.47-.63-6.2.18-12.32,3.1-17.47a34.1,34.1,0,0,1,7.93-9c.35-.29.7-.58,1-.85,9.82-7.66,23.15-9.12,35.63-9.3s24.78,2.46,36.88,5.44c3.22.8,7.1,1,8.51,4-10.28,16.45-16.92,36.53-20.48,56.47-1.18,6.66-2,13.3-2.54,19.78,31.25,6.33,66.21,1.59,90.58-22v0a30.41,30.41,0,0,0,2.32-9.21,76.34,76.34,0,0,1-9.2,6.2C250.67,93.15,240,96.12,229.76,94.26Z"/><path class="cls-8" d="M85.57,327.87c-.12.43-.24.86-.35,1.29l-1.08,3.91-1,3.42-.21.72c-.21.73-.41,1.46-.62,2.19l-.63,2.18c-.26.87-.51,1.74-.77,2.61l-.51,1.71c-.21.72-.43,1.44-.64,2.15s-.35,1.16-.53,1.74Q78,354,76.64,358.24l-.49,1.56c-.14.42-.27.84-.4,1.25-.2.61-.4,1.22-.59,1.82s-.45,1.38-.68,2.07a.19.19,0,0,0,0,.08c-.23.68-.45,1.36-.68,2-.69,2.09-1.39,4.16-2.1,6.24-.17.51-.35,1-.53,1.54l-1.38,4-.48,1.35c-.93,2.63-1.87,5.25-2.83,7.88-.22.58-.43,1.17-.65,1.76l-1,2.6-.58,1.53c-.21.58-.43,1.16-.65,1.74s-.55,1.43-.82,2.15c-.54,1.44-1.1,2.88-1.66,4.32-.15.39-.3.78-.46,1.18q-2.43,6.29-5,12.65c-.32.8-.65,1.6-1,2.4s-.73,1.8-1.11,2.7h0c-.37.9-.74,1.81-1.12,2.71-.79,1.92-1.6,3.84-2.42,5.78-.6,1.44-1.22,2.88-1.84,4.33s-1.27,3-1.92,4.48c-.2.48-.41,1-.63,1.46-.74,1.72-1.49,3.46-2.26,5.2q-1,2.25-2,4.51l-1,2.28c-.62,1.42-1.26,2.85-1.9,4.29q-1.59,3.56-3.22,7.18c2.59-6,29-68.3,48.85-148.65,2.72-11,5.32-22.41,7.72-34,1.5.72,3,1.44,4.61,2.14q-1.35,6.54-2.81,12.84-1.38,6-2.79,11.76c-.19.75-.37,1.51-.56,2.25-.38,1.56-.77,3.11-1.16,4.65-.19.77-.39,1.54-.58,2.31l-.81,3.1c-.13.51-.26,1-.4,1.54s-.26,1-.4,1.53C86.48,324.46,86,326.17,85.57,327.87Z"/><path class="cls-9" d="M176,113c.52-6.48,1.36-13.12,2.54-19.78a56.94,56.94,0,0,1-13-2c-14.1-3.92-26.51-12.92-35.81-24.23C122.9,58.62,117.64,48,117,37.5a34.1,34.1,0,0,0-7.93,9c-2.92,5.15-3.73,11.27-3.1,17.47C113.19,86.67,142.46,106.22,176,113Z"/><path class="cls-5" d="M71.46,268.92h0c-12.75,59.38-33,134-61.31,182.39l4.8,35.32s4.58-8.95,11.45-24.65c15.67-35.74,43.24-106.51,55.74-186.41Q76.4,272.35,71.46,268.92Z"/><path class="cls-5" d="M85.48,250.65c1.79-16,2.89-32.29,3.1-48.61.09-6.59,0-13.2-.2-19.79h0l0-.89c-.06-1.78-.14-3.56-.22-5.33V176S84.37,204,76.62,243.69a59.34,59.34,0,0,0,8.85,6.95Z"/><path class="cls-10" d="M121,99.68l-1.38.11a666,666,0,0,1-5.94,151l1.37.21A666.52,666.52,0,0,0,121,99.68Z"/><path class="cls-11" d="M206.72,303.15c.14-.64.27-1.28.41-1.92h0l5.41-24.7.78-2.9-.13,0q2.35-10.28,4.85-20.5.75-3.09,1.51-6.17.67-2.73,1.36-5.44c10.59-42.13,22.87-83.69,36.56-124.25-.89.37-1.78.75-2.65,1.16-13.52,6.24-25,17.4-39.58,20.23-2.74.53-5.57.77-8.29,1.38l14.92,2a4.67,4.67,0,0,1,.65.13,5,5,0,0,1,3.64,5.45l-.84,6.35a5,5,0,0,1-5.58,4.29l-23.93-3.14a4.53,4.53,0,0,1-.66-.13,4.87,4.87,0,0,1-2-1.07A32.83,32.83,0,0,0,192,165.4c.73,9.36,4.29,18.32,5.05,27.68a21.34,21.34,0,0,1-.05,4.59l.37.08a4.47,4.47,0,0,1,2.74,2.1l10.24,17.76a4.53,4.53,0,0,1-1.66,6.17L191,234a4.51,4.51,0,0,1-6.16-1.65l-4.32-7.5c-1.4.21-2.8-.4-4.17-.79a14.27,14.27,0,0,0-16.8,8.77c-2.47,7.18,1.23,14.82,2.72,22.27,1.32,6.59.88,13.26-.15,19.93V275s0,.06,0,.1a.09.09,0,0,1,0,.05,1,1,0,0,1,0,.15h0c-.44,2.51-3.24,18.32-4.23,25.14h-.08l0,.37h0c0,.33-.05.65-.07,1h0c-.66,9.2.43,18.44,5.72,25.78.17.24.35.47.52.7a10.88,10.88,0,1,1,16.32,13.35,58.92,58.92,0,0,1,7.43,6,80.81,80.81,0,0,1,8.65,10.74Q201,330.67,206.72,303.15Zm-7.41-62.53a18.13,18.13,0,0,1,1.19,34.66h0a18,18,0,0,1-8,.87,18.5,18.5,0,0,1-2.61-.51,18.13,18.13,0,0,1,9.41-35Z"/><path class="cls-11" d="M200.5,275.28a18,18,0,0,1-8,.87C195.27,275.93,197.92,275.63,200.5,275.28Z"/><path class="cls-11" d="M212.49,192.6a5.55,5.55,0,0,1-7.93-5.6l1.6-14.79a5.56,5.56,0,0,1,6.94-4.77,5.37,5.37,0,0,1,1.54.68l12.59,7.94a5.55,5.55,0,0,1-.55,9.69Z"/><path class="cls-11" d="M219.74,158.26l-23.93-3.14a4.53,4.53,0,0,1-.66-.13,4.87,4.87,0,0,1-2-1.07c1.59-5.45,4.77-10.22,9.85-12.55a19.74,19.74,0,0,1,3.94-1.29l14.92,2a4.67,4.67,0,0,1,.65.13,5,5,0,0,1,3.64,5.45l-.84,6.35A5,5,0,0,1,219.74,158.26Z"/><path class="cls-11" d="M208.73,223.78,191,234a4.51,4.51,0,0,1-6.16-1.65l-4.32-7.5.16,0c4.38-.85,3.27-7.37,4.69-11.59,1.77-5.26,8.41-7.41,10.8-12.42a10.82,10.82,0,0,0,.9-3.15l.37.08a4.47,4.47,0,0,1,2.74,2.1l10.24,17.76A4.53,4.53,0,0,1,208.73,223.78Z"/><path class="cls-11" d="M226.68,185.75l-14.19,6.85a5.55,5.55,0,0,1-7.93-5.6l1.6-14.79a5.56,5.56,0,0,1,6.94-4.77,5.37,5.37,0,0,1,1.54.68l12.59,7.94A5.55,5.55,0,0,1,226.68,185.75Z"/><path class="cls-11" d="M212.12,262.84a18.1,18.1,0,0,1-11.62,12.44h0a18,18,0,0,1-8,.87,18.5,18.5,0,0,1-2.61-.51,18.13,18.13,0,1,1,22.22-12.8Z"/><path class="cls-11" d="M184.22,335.65a10.79,10.79,0,0,1-4.05,5.94c-5.83-4.1-12-7.78-16.32-13.35a10.88,10.88,0,0,1,20.37,7.41Z"/><path class="cls-11" d="M111,516.71c-5.19,0-10-2.39-15-3.88-4.77-1.43-10.47-1.79-14.28,1.31a163.32,163.32,0,0,1-55-32q4-8.64,7.66-16.84c.29-.63.57-1.27.86-1.91a.43.43,0,0,0,.05-.12q1.63-3.63,3.22-7.18c.64-1.44,1.28-2.87,1.9-4.29l1-2.28q1-2.27,2-4.51c.77-1.74,1.52-3.48,2.26-5.2.21-.49.43-1,.63-1.46q1-2.25,1.92-4.48c.62-1.45,1.24-2.89,1.84-4.33.82-1.94,1.63-3.86,2.42-5.78.38-.9.75-1.81,1.12-2.71h0q.57-1.35,1.11-2.7c.33-.8.66-1.6,1-2.4q2.6-6.37,5-12.65c.16-.39.31-.79.46-1.18.56-1.44,1.12-2.88,1.66-4.32.28-.72.55-1.44.82-2.15s.44-1.16.65-1.74l.58-1.53,1-2.6c.22-.59.43-1.18.65-1.76,1-2.63,1.9-5.25,2.83-7.88l.48-1.35,1.38-4c.18-.52.36-1,.53-1.54.71-2.08,1.41-4.15,2.1-6.24.23-.67.45-1.35.68-2a.19.19,0,0,1,0-.08c.23-.69.45-1.38.68-2.07s.39-1.21.59-1.82c.13-.41.26-.83.4-1.25l.49-1.56q1.33-4.19,2.63-8.45c.18-.58.35-1.16.53-1.74s.43-1.43.64-2.15l.51-1.71c.26-.87.51-1.74.77-2.61l.63-2.18c.21-.73.42-1.46.62-2.19l.21-.72,1-3.42,1.08-3.91c.11-.43.23-.85.35-1.29.46-1.7.91-3.41,1.37-5.13.14-.51.27-1,.4-1.53s.27-1,.4-1.54l.81-3.1c19.14,8.53,37.12,19.37,48.19,36.74,1,1.53,1.9,3.37,1.24,5.05-.57,1.47-2.16,2.23-3.53,3-9.63,5.4-14,18.52-9.6,28.62,2.64,6,8,11.84,6.22,18.15-.67,2.36-2.29,4.31-3.88,6.18q-9.42,11.18-18.86,22.34c-5.1,6-10.52,13.94-7.36,21.18,1.89,4.34,6.33,6.87,10.24,9.54,9.06,6.19,16.92,15.41,17.94,26.34S122,516.63,111,516.71Z"/><path class="cls-12" d="M219.74,158.26l-23.93-3.14a4.53,4.53,0,0,1-.66-.13,4.87,4.87,0,0,1-2-1.07,5,5,0,0,1-1.65-4.39l.84-6.34a5,5,0,0,1,5.58-4.29l9,1.18,14.92,2a4.67,4.67,0,0,1,.65.13,5,5,0,0,1,3.64,5.45l-.84,6.35A5,5,0,0,1,219.74,158.26Z"/><path class="cls-13" d="M168.15,426.3l-20.88-12.92a4.09,4.09,0,0,0-1.08-.46,4,4,0,0,0-4.49,1.77l-3,4.9a4,4,0,0,0,1.31,5.56l20.88,12.92a4,4,0,0,0,1.08.46,4,4,0,0,0,4.48-1.78l3-4.89A4,4,0,0,0,168.15,426.3Z"/><path class="cls-12" d="M103,323.72a4,4,0,0,0-3-4.07,4.15,4.15,0,0,0-.87-.13l-5.78-.25a4,4,0,0,0-4.2,3.85l-1.05,24.55a4,4,0,0,0,3,4.07,4.25,4.25,0,0,0,.88.13l5.78.25a4,4,0,0,0,4.2-3.85Z"/><path class="cls-12" d="M111.63,378.69a7.66,7.66,0,0,0,9.07-5.92l1.49-7.09a7.66,7.66,0,0,0-5.5-9l-.42-.1a7.66,7.66,0,0,0-9.07,5.92l-1.49,7.09a7.65,7.65,0,0,0,5.5,9Z"/><path class="cls-12" d="M75.77,447.57a7.66,7.66,0,1,0-13.26,7.67l3.63,6.27a7.66,7.66,0,0,0,13.26-7.67Z"/><path class="cls-12" d="M208.73,223.78,191,234a4.51,4.51,0,0,1-6.16-1.65l-4.32-7.5-5.92-10.26a4.52,4.52,0,0,1,1.66-6.17L194,198.2a4.45,4.45,0,0,1,3.06-.53l.37.08a4.47,4.47,0,0,1,2.74,2.1l10.24,17.76A4.53,4.53,0,0,1,208.73,223.78Z"/><rect class="cls-12" x="71.33" y="399.69" width="43" height="19.17" transform="matrix(0.99, -0.16, 0.16, 0.99, -64.07, 20.04)"/><path class="cls-13" d="M166.23,467.12,149.31,450a2.85,2.85,0,0,0-4.72,1.07l-7.91,22.7a2.85,2.85,0,0,0,3.33,3.73l24.82-5.62A2.86,2.86,0,0,0,166.23,467.12Z"/><path class="cls-12" d="M115.23,465.84a4,4,0,0,0-6.38-2.25L93.08,476.2a4,4,0,0,0,1.16,6.87l20.17,7.1.31.1a4,4,0,0,0,4.9-4.72Z"/><path class="cls-12" d="M226.68,185.75l-14.19,6.85a5.55,5.55,0,0,1-7.93-5.6l1.6-14.79a5.56,5.56,0,0,1,6.94-4.77,5.37,5.37,0,0,1,1.54.68l12.59,7.94A5.55,5.55,0,0,1,226.68,185.75Z"/><path class="cls-12" d="M212.12,262.84a18.1,18.1,0,0,1-11.62,12.44h0a18,18,0,0,1-8,.87,18.5,18.5,0,0,1-2.61-.51,18.13,18.13,0,1,1,22.22-12.8Z"/><circle class="cls-12" cx="65.81" cy="488.39" r="10.88" transform="translate(-422.93 425.25) rotate(-74.96)"/><path class="cls-12" d="M184.22,335.65a10.88,10.88,0,1,1-21-5.64,11.26,11.26,0,0,1,.64-1.77,10.88,10.88,0,0,1,20.37,7.41Z"/><polygon class="cls-8" points="96.36 256.92 91.84 280.62 96.45 282.76 100.82 259.09 96.36 256.92"/><path class="cls-11" d="M162,275.25a1,1,0,0,0,0-.15A1,1,0,0,1,162,275.25Z"/><path class="cls-11" d="M157.8,300.4l2,.28-2.18,1.08h0Q157.7,301.15,157.8,300.4Z"/><ellipse class="cls-14" cx="80.82" cy="202.37" rx="36.33" ry="36.38" transform="translate(-135.89 225.29) rotate(-74.27)"/><path class="cls-4" d="M105.26,207.81a25.06,25.06,0,1,0-29.89,19A25.06,25.06,0,0,0,105.26,207.81ZM78.5,199.09c-4.89,3.25-11,2.6-13.74-1.46s-.93-10,4-13.21,11-2.59,13.73,1.46S83.38,195.84,78.5,199.09Zm14.31,21.08c-2.82,1.88-6.38,1.5-8-.85s-.53-5.76,2.29-7.64,6.39-1.5,7.95.84S95.64,218.29,92.81,220.17Z"/><ellipse class="cls-14" cx="231.98" cy="242.92" rx="36.33" ry="36.38" transform="translate(-64.81 400.23) rotate(-74.25)"/><path class="cls-4" d="M256.41,248.36a25.06,25.06,0,1,0-29.88,19A25,25,0,0,0,256.41,248.36Zm-26-10.05c-5.26,2.61-11.28,1.19-13.45-3.17s.33-10,5.59-12.61,11.27-1.18,13.44,3.17S235.62,235.71,230.37,238.31Zm15.46,22c-2.82,1.88-6.38,1.5-8-.85s-.53-5.76,2.29-7.64,6.39-1.5,8,.84S248.66,258.4,245.83,260.28Z"/><path class="cls-4" d="M223.09,176.11c-.89,6.38,10.29,10.19,22.85,11.65,11.24,1.31,22.07,3.6,24.71-4.54C276.06,166.47,225.75,156.93,223.09,176.11Z"/><path class="cls-4" d="M77.22,131.33c-1.79,8.36,8.73,11.81,19.12,16.3,11.6,5,23.19,7.32,25.61,1.36C129.25,131,80.91,114.12,77.22,131.33Z"/><path class="cls-15" d="M257.86,297.41c-1.21,4.51-9,6.33-17.45,4.07s-14.28-7.75-13.08-12.26,9-6.33,17.46-4.07S259.07,292.9,257.86,297.41Z"/><ellipse class="cls-15" cx="43.4" cy="239.88" rx="8.45" ry="15.8" transform="translate(-199.53 219.65) rotate(-74.98)"/><path class="cls-16" d="M175,250.3c4.5,9.87-6,23.16-28,17.27S124,244,131.44,238.62c4.26-3.07,11.13.88,22.28,3.87S172.73,245.41,175,250.3Z"/><path class="cls-14" d="M171.45,250.92c-.49,1.84-9,1.17-18.92-1.51s-17.64-6.32-17.14-8.16,8.44.78,18.4,3.45S172,249.08,171.45,250.92Z"/><path class="cls-17" d="M133.74,257.48c2.84,3,7.37,5.81,14,7.59,7.45,2,13.31,1.76,17.49.28C155.83,249.66,142.05,253.22,133.74,257.48Z"/></g></g></g></svg>