<svg xmlns="http://www.w3.org/2000/svg" viewBox="0 0 358.21 598.65"><defs><style>.cls-1{isolation:isolate;}.cls-2{mix-blend-mode:multiply;opacity:0.26;}.cls-3{fill:#000f1b;}.cls-4{fill:#133441;}.cls-5{fill:#fe5485;}.cls-6{fill:#fcead4;}.cls-7{fill:#f7d5a8;}.cls-8{fill:#fad4a7;}.cls-9{fill:#eec494;}.cls-10{fill:#fbd4a9;}.cls-11{fill:#fff4e5;}.cls-12{fill:#a8d24c;}.cls-13{fill:#a0b24c;}.cls-14{fill:#f2c291;}.cls-15{fill:#fff;}.cls-16{fill:#ee927e;}.cls-17{fill:#ab1700;}.cls-18{fill:#fd6c6c;}</style></defs><g class="cls-1"><g id="Layer_2" data-name="Layer 2"><g id="Layer_2-2" data-name="Layer 2"><g class="cls-2"><ellipse class="cls-3" cx="175.37" cy="573.31" rx="89.98" ry="25.34"/></g><path class="cls-4" d="M226.61,322a5,5,0,0,1-2.62-9.28A458.46,458.46,0,0,1,305.76,273a5,5,0,0,1,3.26,9.47,456.72,456.72,0,0,0-79.79,38.78A5,5,0,0,1,226.61,322Z"/><path class="cls-4" d="M327.33,294.56a5,5,0,0,1-1.26-.16c-.62-.16-15.28-4.07-21.93-15-7.62-12.5-4.47-24-4.33-24.49a5,5,0,0,1,9.64,2.71c-.1.41-2,8,3.25,16.57,4.48,7.35,15.77,10.46,15.89,10.49a5,5,0,0,1-1.26,9.85Z"/><path class="cls-4" d="M312.31,283.45c-3.73,0-6.77-1.22-8.36-4.37-3.9-7.73,6.44-15.76,15.79-21.14a5,5,0,1,1,5,8.68,58.2,58.2,0,0,0-8.8,6.22,63.06,63.06,0,0,0,10.77-4,5,5,0,0,1,4.35,9C325,280.76,317.87,283.45,312.31,283.45Z"/><path class="cls-4" d="M107.27,330.46a5,5,0,0,1-2.35-.59c-40.31-21.43-80-38.9-80.44-39.07a5,5,0,0,1,4-9.18c.4.18,40.49,17.8,81.12,39.41a5,5,0,0,1-2.35,9.43Z"/><path class="cls-4" d="M6.55,303a5,5,0,0,1-1.25-9.85c.1,0,11.38-3.08,15.89-10.49,5.28-8.66,3.27-16.45,3.25-16.53a5,5,0,1,1,9.63-2.74c.14.48,3.29,12-4.33,24.48-6.64,10.9-21.31,14.81-21.93,15A5,5,0,0,1,6.55,303Z"/><path class="cls-4" d="M21.57,291.88c-5.56,0-12.65-2.69-18.74-5.63a5,5,0,0,1,4.35-9,63.51,63.51,0,0,0,10.76,4,59.09,59.09,0,0,0-8.79-6.21,5,5,0,1,1,5-8.68c9.36,5.37,19.69,13.41,15.8,21.13C28.34,290.67,25.3,291.88,21.57,291.88Zm-.79-7.39h0Z"/><path class="cls-4" d="M231.15,572h-.34c-8.48-.57-12.82-3.81-13.29-4.18a5,5,0,0,1-1.91-4.16l2.63-58.9a5,5,0,0,1,10,.45l-2.49,55.69a21.55,21.55,0,0,0,5.72,1.1,5,5,0,0,1-.33,10Z"/><path class="cls-4" d="M131.77,572a5,5,0,0,1-.33-10,21.32,21.32,0,0,0,5.73-1.1l-2.49-55.69a5,5,0,0,1,10-.45l2.64,58.9a5,5,0,0,1-1.91,4.16c-.47.37-4.82,3.61-13.3,4.18Z"/><path class="cls-5" d="M343.11,163.39c-8.8.24-13.08,4.25-13.08,4.25s-.95-5.8-7.77-11.36c-8.63-7.05-19.17-3.64-22.27,5.44-5.42,15.87,18.24,40.47,18.24,40.47s33.78-5,39.19-20.89C360.52,172.21,354.25,163.08,343.11,163.39Z"/><path class="cls-5" d="M323,110.44c-4.62,3.3-5.47,7-5.47,7s-2.59-2.76-8.25-3.28c-7.16-.66-11.57,5-9.95,10.94,2.82,10.45,24.35,15.08,24.35,15.08s16.26-14.87,13.43-25.31C335.47,108.88,328.83,106.26,323,110.44Z"/><path class="cls-6" d="M265.32,499.63c-28.43,16.31-61.8,23.39-94.47,21.06,2.88-4,8.48-5.11,13.46-5,5.18.15,10.49,1.24,15.49-.14,10.57-2.93,15.35-16.62,11.53-26.92s-13.8-17.15-24.16-20.78c-4.47-1.56-9.41-2.85-12.37-6.55-4.92-6.18-1.74-15.22,1.62-22.37l12.42-26.47c1-2.22,2.11-4.52,2.15-7,.11-6.57-6.62-10.79-10.72-15.91-6.9-8.62-6.05-22.43,1.84-30.14,1.13-1.1,2.46-2.24,2.64-3.81.2-1.79-1.19-3.33-2.52-4.55-15.2-13.91-35.37-19.71-56.07-23l0,3.2c0,.54,0,1.06,0,1.6s0,1.05,0,1.58q0,2.67,0,5.31v1.34c0,1.35,0,2.71,0,4.05s0,2.37,0,3.56c0,.25,0,.49,0,.74,0,.76,0,1.52,0,2.28s0,1.51,0,2.27l-.06,2.72c0,.6,0,1.19,0,1.79l-.06,2.24-.06,1.81q-.15,4.45-.34,8.85l-.08,1.64-.06,1.3c0,.64-.07,1.28-.1,1.92s-.07,1.44-.11,2.17a.19.19,0,0,0,0,.08l-.12,2.14q-.19,3.29-.41,6.57c0,.53-.08,1.07-.11,1.62-.1,1.4-.2,2.8-.31,4.2,0,.48-.07.95-.11,1.43q-.32,4.17-.69,8.34c-.06.63-.11,1.25-.17,1.88-.08.91-.17,1.83-.26,2.75l-.15,1.63-.18,1.85-.24,2.29c-.15,1.53-.31,3.07-.48,4.6,0,.42-.09.84-.13,1.26-.49,4.47-1,9-1.58,13.53-.11.85-.22,1.71-.32,2.57s-.25,1.92-.37,2.89h0l-.39,2.9c-.27,2.06-.54,4.13-.83,6.21-.21,1.55-.43,3.1-.65,4.66s-.46,3.21-.7,4.82c-.07.52-.15,1-.23,1.58q-.41,2.77-.83,5.61c-.24,1.61-.49,3.23-.74,4.87-.13.81-.25,1.63-.38,2.45-.23,1.54-.48,3.09-.72,4.64-.41,2.57-.82,5.15-1.25,7.78,0,0,0,.08,0,.13-.12.68-.23,1.37-.34,2.06-2.84-.46-5.7-.85-8.56-1.17-2.57,16.95-4.68,26.78-4.68,26.78L85.39,478.58c14.81-54.05,15-131.4,11.89-192l-1.55-25.7h0q-.42-6.15-.87-11.89l-.09-1.12c-.18-2.26-.35-4.46-.54-6.61q-.11-1.29-.21-2.55l0,0,0-.36c0-.28,0-.56-.07-.85a8.24,8.24,0,0,1,0-.86,27.57,27.57,0,0,0-.08-3.4c-.1-1.14-.25-2.27-.41-3.41s-.18-2.3-.36-3.44c-.09-.57-.2-1.13-.29-1.7,0-.37-.07-.73-.11-1.09s-.09-1-.14-1.42l-.09-1c-.41-4.2-.8-8-1.16-11.38,0-.33-.07-.66-.11-1,0-.53-.11-1-.16-1.55,0-.33-.08-.67-.11-1s-.07-.65-.11-1-.07-.62-.1-.93c-.31-2.77-.58-5.1-.8-6.94l-.06-.55c-.12-1-.22-1.78-.3-2.44,0-.12,0-.24,0-.36-.08-.66-.14-1.13-.18-1.39a.17.17,0,0,0,0-.07,1.14,1.14,0,0,1,0-.15h0c-7.27-32.71-23.41-66.33-48.41-88C38.48,87.35,40.52,73.79,47.7,58c13.7-30.1,44-51.39,76.61-56.64s67,4.75,93.34,24.72c5.23,3.95,19.12,13.18,21.79,28.49a30.63,30.63,0,0,1,.15,9.5v0s0,0,0,0Q238.49,78,237.6,92h0c-.76.59-1.51,1.18-2.25,1.8-11.44,9.53-19.59,23.28-33,29.81-3.76,1.84-7.89,3.07-11.12,5.74-4.31,3.58-6.14,9-6.25,14.7,0,.38,0,.76,0,1.13a33.09,33.09,0,0,0,1.9,10.24c3.12,8.84,8.89,16.57,12,25.41a18.1,18.1,0,0,1,1.24,5.9v.16a9.23,9.23,0,0,1-.15,1.66c-1,5.46-6.87,9.26-7.21,14.8,0,.2,0,.4,0,.6,0,2.39.69,5.14.7,7.44,0,1.92-.46,3.52-2.2,4.37-1.33.65-2.89.41-4.38.39A14.29,14.29,0,0,0,173,229q0,.48,0,1v.26c.11,7,5.25,13.14,8.44,19.58,3,6,4.26,12.43,5,19.06,0,0,0,0,0,.13.14,1.67,1.61,18.52,2.45,25.59h-.08c0,.12,0,.24.07.36v0c.06.32.11.64.18,1v0c1.75,9,5.2,17.69,12.21,23.4,8.17,6.66,19.45,7.9,28.63,13.06A79.86,79.86,0,0,1,241,340.5,1348.8,1348.8,0,0,0,265.32,499.63Z"/><path class="cls-6" d="M92.75,224.6c0-.58-.11-1.14-.16-1.69h0c0,.57.12,1.13.21,1.69Z"/><path class="cls-6" d="M234.63,227.06c0,2.12.09,4.23.14,6.35,0,.55,0,1.1,0,1.65L234.5,219l0,2.45C234.56,223.32,234.59,225.19,234.63,227.06Z"/><path class="cls-7" d="M75.87,62c-1.48,5.73-.68,11.85,1.53,17.67,12.92,20,46.25,31.33,80.41,29.19-1.18-6.4-2.09-13-2.68-19.77-1.73-20.18-.53-41.3,5.13-59.84-2.15-2.55-5.93-1.7-9.25-1.63-12.46.26-25,.91-37,4.31S89.48,40.2,82,50.15c-.26.35-.53.72-.79,1.09A33.87,33.87,0,0,0,75.87,62Z"/><path class="cls-8" d="M124.19,278.45c.42,3.43.72,6.88.88,10.34,0,.32,0,.65,0,1l.37,3.72q0-4.61-.42-9.2-.42-5.21-1.21-10.37c-.22-1.42-.46-2.83-.72-4.24l.37,3.8C123.76,275.13,124,276.79,124.19,278.45Z"/><path class="cls-8" d="M109.09,289.89v0s0,.05,0,.07a.06.06,0,0,0,0,0h0v0l0,.07h0l.17.05.24,2.22c.16,1.56.32,3.11.46,4.67l.21,2.21c0,.51.1,1,.14,1.53l.3,3.38.15,1.89c0,.28.05.57.07.85l.15,1.81.24,3.27c.08,1,.15,2.07.22,3.11,0,.43.06.87.08,1.3.14,2.08.27,4.16.38,6.22.05.77.09,1.53.13,2.29l.06,1.29q.18,3.51.32,7l.09,2.13.06,1.68q.13,3.88.23,7.72c0,.3,0,.59,0,.89s0,.72,0,1.08l.06,2.59c0,.46,0,.92,0,1.38s0,.79,0,1.19c0,1.41,0,2.82.05,4.22,0,.52,0,1.05,0,1.57,0,.86,0,1.72,0,2.58,0,9.61-.12,19-.41,28.05q-.24,7.08-.58,13.9c-.06,1.25-.12,2.48-.19,3.71l0,.69q-.16,2.85-.34,5.66c-.14,2.34-.3,4.66-.46,7-.12,1.82-.26,3.61-.39,5.39-1.87,24.37-4.52,45-6.8,60.06,2.86.32,5.72.71,8.56,1.17.11-.69.22-1.38.34-2.06,0,0,0-.09,0-.13.43-2.63.84-5.21,1.25-7.78l.72-4.64c.13-.82.25-1.64.38-2.45.25-1.64.5-3.26.74-4.87q.42-2.84.83-5.61c.08-.53.16-1.06.23-1.58.24-1.61.47-3.22.7-4.82s.44-3.11.65-4.66c.29-2.08.56-4.15.83-6.21l.39-2.9h0c.12-1,.25-1.93.37-2.89s.21-1.72.32-2.57c.57-4.56,1.09-9.06,1.58-13.53,0-.42.09-.84.13-1.26.17-1.53.33-3.07.48-4.6l.24-2.29.18-1.85.15-1.63c.09-.92.18-1.84.26-2.75.06-.63.11-1.25.17-1.88q.38-4.17.69-8.34c0-.48.07-.95.11-1.43.11-1.4.21-2.8.31-4.2,0-.55.07-1.09.11-1.62q.21-3.28.41-6.57l.12-2.14a.19.19,0,0,1,0-.08c0-.73.07-1.45.11-2.17s.07-1.28.1-1.92l.06-1.3.08-1.64q.19-4.4.34-8.85l.06-1.81.06-2.24c0-.6,0-1.19,0-1.79l.06-2.72c0-.76,0-1.51,0-2.27s0-1.52,0-2.28c0-.25,0-.49,0-.74,0-1.19,0-2.37,0-3.56s0-2.7,0-4.05v-1.34q0-2.64,0-5.31v-1.58c0-.54,0-1.06,0-1.6l0-3.2,0-2.38c0-1.58,0-3.18-.09-4.79,0-.77,0-1.54-.05-2.31q-.12-5.94-.35-12.09-.23-6.46-.62-13.13h0l.18,0c0-1.23,0-2.45-.09-3.68l-1.61-16.29c-.27-1.69-.57-3.38-.9-5.06,0-.17.24-.21.27,0,.09.44.17.87.26,1.3l0-.25c-6.34-64-23-136.16-46.5-191.07.26.44.53.87.8,1.3-2.21-5.82-3-11.94-1.53-17.67a33.87,33.87,0,0,1,5.32-10.75c.26-.37.53-.74.79-1.09,7.5-9.95,20-14.81,32-18.23s24.57-4.05,37-4.31c3.32-.07,7.1-.92,9.25,1.63-5.66,18.54-6.86,39.66-5.13,59.84.59,6.74,1.5,13.37,2.68,19.77,31.82-2,64.35-15.65,81.78-44.73v0a30.63,30.63,0,0,0-.15-9.5c-2.67-15.31-16.56-24.54-21.79-28.49-26.38-20-60.69-30-93.34-24.72S61.4,27.93,47.7,58c-7.18,15.76-9.22,29.32-6.83,46.45,25,21.65,41.14,55.27,48.41,88v0q.83,2.53,1.6,5.09c.09.29.18.57.26.86h0q2.91,9.47,5.33,19.07c4,15.82,7.19,31.81,9.61,47.74h0"/><path class="cls-8" d="M109.11,289.76v0h0v0"/><path class="cls-9" d="M204.86,76.79a34.73,34.73,0,0,1-30.79-14.6c-6.72-9.8-8.95-25.65-3.82-36.39C43.22,1.27,71.48,90.44,71.48,90.44,99.42,142,112.71,206.59,118.23,268.49q2.35.5,4.86.93h0c-6.34-64-23-136.16-46.5-191.07.26.44.53.87.8,1.3-2.21-5.82-3-11.94-1.53-17.67a33.87,33.87,0,0,1,5.32-10.75c.26-.37.53-.74.79-1.09,7.5-9.95,20-14.81,32-18.23s24.57-4.05,37-4.31c3.32-.07,7.1-.92,9.25,1.63-5.66,18.54-6.86,39.66-5.13,59.84.59,6.75,1.5,13.37,2.68,19.77,31.82-2,64.35-15.65,81.78-44.73v0a30.63,30.63,0,0,0-.15-9.5A77.14,77.14,0,0,1,232.17,63C224.77,70.3,215.23,75.93,204.86,76.79Z"/><path class="cls-9" d="M126.21,339.81v1.34c0,1.35,0,2.71,0,4.05s0,2.38,0,3.56c0,.25,0,.49,0,.74,0,.76,0,1.52,0,2.28s0,1.51,0,2.27l-.06,2.72c0,.6,0,1.19,0,1.79l-.06,2.24-.06,1.81q-.15,4.45-.34,8.85l-.08,1.64-.06,1.3c0,.64-.07,1.28-.1,1.92s-.07,1.44-.11,2.17a.19.19,0,0,0,0,.08l-.12,2.14q-.19,3.29-.41,6.57c0,.53-.08,1.07-.11,1.62-.1,1.4-.2,2.8-.31,4.2,0,.48-.07.95-.11,1.43q-.32,4.17-.69,8.34c-.06.63-.11,1.25-.17,1.88-.08.91-.17,1.83-.26,2.75l-.15,1.63-.18,1.85-.24,2.29c-.15,1.53-.31,3.07-.48,4.6,0,.42-.09.84-.13,1.26-.49,4.47-1,9-1.58,13.53-.11.85-.22,1.71-.32,2.57s-.25,1.92-.37,2.89h0l-.39,2.9c-.27,2.06-.54,4.13-.83,6.21-.21,1.55-.43,3.1-.65,4.66s-.46,3.21-.7,4.82c-.07.52-.15,1-.23,1.58q-.41,2.77-.83,5.61c-.24,1.61-.49,3.23-.74,4.87-.13.81-.25,1.63-.38,2.45-.23,1.54-.48,3.09-.72,4.64-.41,2.57-.82,5.15-1.25,7.78,1-6.49,10.32-73.5,8.62-156.24-.24-11.36-.68-23-1.38-34.86,1.64.31,3.32.6,5,.87q.39,6.66.62,13.13.23,6.15.35,12.09c0,.77,0,1.54.05,2.31,0,1.61.06,3.21.09,4.79l0,2.38,0,3.2c0,.54,0,1.06,0,1.6s0,1.05,0,1.58Q126.23,337.17,126.21,339.81Z"/><path class="cls-10" d="M157.81,108.85c-1.18-6.4-2.09-13-2.68-19.77a56.93,56.93,0,0,1-13.07,1.39c-14.63-.13-28.95-5.6-40.86-14.11-8.78-6.27-16.61-15.15-20-25.12A33.87,33.87,0,0,0,75.87,62c-1.48,5.73-.68,11.85,1.53,17.67C90.32,99.7,123.65,111,157.81,108.85Z"/><path class="cls-6" d="M97.3,286.54h0c3.09,60.66,2.91,138-11.9,192.05l13.8,32.87s2.1-9.83,4.67-26.78c5.85-38.58,14.12-114.08,5.46-194.48Q103,288.56,97.3,286.54Z"/><path class="cls-6" d="M106.09,265.25c-2.42-15.93-5.58-31.92-9.61-47.74q-2.43-9.58-5.32-19.07h0c-.08-.29-.17-.57-.26-.86-.52-1.7-1-3.39-1.6-5.09l0-.05s3.66,28.09,6.46,68.4a60.15,60.15,0,0,0,10.36,4.41Z"/><path class="cls-11" d="M101.23,110.24l-1.31.46A665.75,665.75,0,0,1,133.36,258l1.38-.15A667.42,667.42,0,0,0,101.23,110.24Z"/><path class="cls-12" d="M236.81,284.51c0-.66-.07-1.31-.11-2h0l-1.19-25.26v-3l-.11.06q-.39-10.51-.64-21c-.05-2.12-.1-4.23-.14-6.35,0-1.87-.07-3.74-.1-5.61-.7-43.43.37-86.75,3.07-129.48-.76.59-1.52,1.19-2.26,1.81-11.44,9.53-19.59,23.28-33,29.81-2.51,1.22-5.18,2.18-7.64,3.48l14.91-2a4.87,4.87,0,0,1,.66,0,5,5,0,0,1,4.93,4.32l.84,6.34a5,5,0,0,1-4.28,5.59l-23.93,3.18a4.89,4.89,0,0,1-.66,0,5,5,0,0,1-2.2-.52,32.47,32.47,0,0,0,1.9,11.38c3.12,8.85,8.89,16.58,12,25.42a21.65,21.65,0,0,1,1.15,4.44h.37a4.49,4.49,0,0,1,3.19,1.32l14.5,14.49a4.53,4.53,0,0,1,0,6.39l-14.5,14.49a4.51,4.51,0,0,1-6.38,0l-6.12-6.12c-1.3.56-2.8.34-4.23.32a14.29,14.29,0,0,0-14,12.83c-.52,7.57,5,14,8.41,20.8,3,6,4.29,12.58,5,19.29a.24.24,0,0,1,0-.09.38.38,0,0,0,0,.1V269a.71.71,0,0,1,0,.15h0c.23,2.54,1.63,18.53,2.44,25.38h-.08c0,.12,0,.24.07.36v0c.06.32.11.64.18,1v0c1.75,9,5.2,17.69,12.21,23.4l.69.55a10.88,10.88,0,1,1,19.22,8.66,58.59,58.59,0,0,1,8.72,3.85A79.86,79.86,0,0,1,241,340.5Q238.39,312.57,236.81,284.51ZM213.43,226a18.14,18.14,0,0,1,10.14,33.17h0a18.11,18.11,0,0,1-7.49,2.9,17.87,17.87,0,0,1-2.65.19,18.13,18.13,0,1,1,0-36.26Z"/><path class="cls-12" d="M223.57,259.21a18.11,18.11,0,0,1-7.49,2.9C218.69,261.19,221.17,260.21,223.57,259.21Z"/><path class="cls-12" d="M213.7,176.24a5.46,5.46,0,0,1-3.6,1.35,5.54,5.54,0,0,1-5.51-4.7l-2.29-14.7a5.55,5.55,0,0,1,5.46-6.4,5.67,5.67,0,0,1,1.66.25l14.22,4.41a5.54,5.54,0,0,1,2,9.49Z"/><path class="cls-12" d="M211.79,141.19l-23.93,3.18a4.89,4.89,0,0,1-.66,0,5,5,0,0,1-2.2-.52c.11-5.68,1.95-11.11,6.25-14.68a20,20,0,0,1,3.48-2.26l14.91-2a4.87,4.87,0,0,1,.66,0,5,5,0,0,1,4.93,4.32l.84,6.34A5,5,0,0,1,211.79,141.19Z"/><path class="cls-12" d="M218.16,207.33l-14.5,14.49a4.51,4.51,0,0,1-6.38,0l-6.12-6.12.15-.07c4-2,1.25-8,1.52-12.41.34-5.54,6.2-9.34,7.21-14.8a10.92,10.92,0,0,0,.06-3.28h.37a4.49,4.49,0,0,1,3.19,1.32l14.5,14.49A4.53,4.53,0,0,1,218.16,207.33Z"/><path class="cls-12" d="M225.62,165.94l-11.92,10.3a5.46,5.46,0,0,1-3.6,1.35,5.54,5.54,0,0,1-5.51-4.7l-2.29-14.7a5.55,5.55,0,0,1,5.46-6.4,5.67,5.67,0,0,1,1.66.25l14.22,4.41A5.54,5.54,0,0,1,225.62,165.94Z"/><path class="cls-12" d="M231.56,244.17a18.13,18.13,0,0,1-8,15h0a18.11,18.11,0,0,1-7.49,2.9,17.87,17.87,0,0,1-2.65.19,18.13,18.13,0,1,1,18.13-18.13Z"/><path class="cls-12" d="M223.51,321.73a10.83,10.83,0,0,1-2.37,6.79c-6.69-2.45-13.63-4.39-19.22-8.66a10.88,10.88,0,0,1,21.59,1.87Z"/><path class="cls-12" d="M199.8,515.58c-5,1.38-10.31.29-15.49.14-5-.14-10.58,1-13.46,5a163.32,163.32,0,0,1-61.46-16.6q1.59-9.37,3-18.25c.11-.69.22-1.38.34-2.06,0,0,0-.09,0-.13.43-2.63.84-5.21,1.25-7.78.24-1.55.49-3.1.72-4.64.13-.82.25-1.64.38-2.45.25-1.64.5-3.26.74-4.87q.42-2.84.83-5.61c.08-.53.16-1.06.23-1.58.24-1.61.47-3.22.7-4.82s.44-3.11.65-4.66c.29-2.08.56-4.15.83-6.21.14-1,.26-1.94.39-2.9h0c.12-1,.25-1.93.37-2.89s.21-1.72.32-2.57c.57-4.56,1.09-9.06,1.58-13.53,0-.42.09-.84.13-1.26.17-1.53.33-3.07.48-4.6l.24-2.29.18-1.85.15-1.63c.09-.92.18-1.84.26-2.75.06-.63.11-1.25.17-1.88q.38-4.17.69-8.34c0-.48.07-.95.11-1.43.11-1.4.21-2.8.31-4.2,0-.54.07-1.08.11-1.62q.21-3.28.41-6.57l.12-2.14a.19.19,0,0,1,0-.08c0-.73.07-1.45.11-2.17s.07-1.28.1-1.92l.06-1.3.08-1.64q.19-4.4.34-8.85l.06-1.81.06-2.24c0-.6,0-1.19,0-1.79l.06-2.72c0-.76,0-1.51,0-2.27s0-1.52,0-2.28c0-.25,0-.49,0-.74,0-1.19,0-2.37,0-3.56s0-2.7,0-4.05v-1.34q0-2.64,0-5.31c0-.53,0-1.06,0-1.58s0-1.06,0-1.6l0-3.2c20.7,3.28,40.87,9.08,56.07,23,1.33,1.22,2.72,2.76,2.52,4.55-.18,1.57-1.51,2.71-2.64,3.81-7.89,7.71-8.74,21.52-1.84,30.14,4.1,5.12,10.83,9.34,10.72,15.91,0,2.45-1.11,4.75-2.15,7L176.42,439c-3.36,7.15-6.54,16.19-1.62,22.37,3,3.7,7.9,5,12.37,6.55,10.36,3.63,20.34,10.5,24.16,20.78S210.37,512.65,199.8,515.58Z"/><path class="cls-13" d="M211.79,141.19l-23.93,3.18a4.89,4.89,0,0,1-.66,0,5,5,0,0,1-4.93-4.33l-.84-6.34a5,5,0,0,1,4.27-5.59l9-1.2,14.91-2a4.87,4.87,0,0,1,.66,0,5,5,0,0,1,4.93,4.32l.84,6.34A5,5,0,0,1,211.79,141.19Z"/><path class="cls-14" d="M231.5,413.44,208,406.39a3.93,3.93,0,0,0-1.16-.17A4.06,4.06,0,0,0,203,409.1l-1.65,5.51a4,4,0,0,0,2.71,5l23.52,7.06a4.17,4.17,0,0,0,1.16.17,4,4,0,0,0,3.87-2.88l1.65-5.51A4,4,0,0,0,231.5,413.44Z"/><path class="cls-13" d="M142,331.27a4,4,0,0,0-3.93-3.15,3.83,3.83,0,0,0-.88.1l-5.64,1.26a4,4,0,0,0-3.06,4.81l5.35,24a4,4,0,0,0,3.93,3.15,3.77,3.77,0,0,0,.88-.1l5.65-1.25a4,4,0,0,0,3.05-4.81Z"/><path class="cls-13" d="M164.57,382.13a7.65,7.65,0,0,0,7.22-8.07l-.4-7.23a7.66,7.66,0,0,0-7.64-7.24h-.43a7.66,7.66,0,0,0-7.22,8.07l.4,7.24a7.65,7.65,0,0,0,7.64,7.23Z"/><path class="cls-13" d="M147.8,458A7.66,7.66,0,0,0,137,468.8l5.13,5.12a7.66,7.66,0,1,0,10.81-10.85Z"/><path class="cls-13" d="M218.16,207.33l-14.5,14.49a4.51,4.51,0,0,1-6.38,0l-6.12-6.12-8.37-8.37a4.51,4.51,0,0,1,0-6.39l14.49-14.49a4.49,4.49,0,0,1,2.82-1.31h.37a4.49,4.49,0,0,1,3.19,1.32l14.5,14.49A4.53,4.53,0,0,1,218.16,207.33Z"/><rect class="cls-13" x="132.85" y="406.96" width="43" height="19.17" transform="translate(-157.25 99.94) rotate(-24.21)"/><path class="cls-14" d="M240.24,453.37l-20.77-12.11a2.8,2.8,0,0,0-1.43-.39,2.85,2.85,0,0,0-2.85,2.65l-1.75,24a2.85,2.85,0,0,0,2.85,3.06,2.81,2.81,0,0,0,1.33-.33l22.51-11.86A2.86,2.86,0,0,0,240.24,453.37Z"/><path class="cls-13" d="M190.65,465.36a4,4,0,0,0-6.74-.52l-12,16.27a4,4,0,0,0,2.91,6.34l21.32,1.62h.32a4,4,0,0,0,3.51-5.83Z"/><path class="cls-13" d="M225.62,165.94l-11.92,10.3a5.46,5.46,0,0,1-3.6,1.35,5.54,5.54,0,0,1-5.51-4.7l-2.29-14.7a5.55,5.55,0,0,1,5.46-6.4,5.67,5.67,0,0,1,1.66.25l14.22,4.41A5.54,5.54,0,0,1,225.62,165.94Z"/><path class="cls-13" d="M231.56,244.17a18.13,18.13,0,0,1-8,15h0a18.11,18.11,0,0,1-7.49,2.9,17.87,17.87,0,0,1-2.65.19,18.13,18.13,0,1,1,18.13-18.13Z"/><circle class="cls-13" cx="148.78" cy="499.96" r="10.88"/><path class="cls-13" d="M223.51,321.73a10.88,10.88,0,1,1-21.75,0,10.57,10.57,0,0,1,.16-1.87,10.88,10.88,0,0,1,21.59,1.87Z"/><polygon class="cls-9" points="118.23 268.49 120.01 292.55 125.02 293.42 123.1 269.43 118.23 268.49"/><path class="cls-12" d="M186.41,269.15c0-.06,0-.11,0-.15A.71.71,0,0,1,186.41,269.15Z"/><path class="cls-12" d="M188.85,294.54l2-.25L189,295.91v0C189,295.5,188.91,295,188.85,294.54Z"/><ellipse class="cls-15" cx="84.31" cy="209.85" rx="36.33" ry="36.38" transform="translate(-126.54 291.63) rotate(-89.31)"/><path class="cls-4" d="M109.33,208.77a25.06,25.06,0,1,0-24,26.08A25,25,0,0,0,109.33,208.77Zm-28.11-1.49c-3.87,4.41-10,5.37-13.64,2.16s-3.48-9.39.4-13.79,10-5.36,13.64-2.15S85.1,202.88,81.22,207.28Zm19.29,16.65c-2.24,2.55-5.78,3.1-7.89,1.25s-2-5.43.23-8,5.77-3.1,7.89-1.25S102.75,221.38,100.51,223.93Z"/><ellipse class="cls-15" cx="240.82" cy="209.85" rx="36.33" ry="36.38" transform="translate(28.26 448.29) rotate(-89.35)"/><path class="cls-4" d="M265.83,208.77a25.06,25.06,0,1,0-23.95,26.08A25,25,0,0,0,265.83,208.77Zm-27.76-3c-4.4,3.88-10.58,4.07-13.81.42s-2.27-9.74,2.13-13.62,10.58-4.07,13.81-.43S242.47,201.94,238.07,205.82ZM258.7,223c-2.25,2.54-5.78,3.1-7.9,1.24s-2-5.43.23-8,5.78-3.1,7.9-1.24S260.94,220.48,258.7,223Z"/><path class="cls-4" d="M214.51,139.49c-1.35,6.29,9.53,10.91,21.94,13.29,11.11,2.13,21.75,5.2,25-2.72C268.06,133.76,218.58,120.55,214.51,139.49Z"/><path class="cls-4" d="M63.51,149.45c3,8,13.73,5.22,24.89,3.39,12.48-2.05,23.47-6.38,22.29-12.7C107.13,121.1,57.32,133,63.51,149.45Z"/><ellipse class="cls-16" cx="264.13" cy="255.77" rx="15.8" ry="8.45"/><ellipse class="cls-16" cx="57.89" cy="255.77" rx="15.8" ry="8.45"/><path class="cls-17" d="M187.67,231.75c6.91,8.36.18,23.93-22.55,23.93s-28.31-16.83-22.52-23.93c3.32-4.07,11-2,22.52-2S184.24,227.6,187.67,231.75Z"/><path class="cls-15" d="M184.43,233.26c0,1.9-8.36,3.45-18.67,3.45s-18.67-1.55-18.67-3.45,8.36-1.44,18.67-1.44S184.43,231.35,184.43,233.26Z"/><path class="cls-18" d="M149.71,249.37c3.52,2.19,8.62,3.69,15.51,3.69,7.72,0,13.32-1.75,17-4.26C169,236.09,156.63,243.1,149.71,249.37Z"/></g></g></g></svg>